<svg xmlns="http://www.w3.org/2000/svg" viewBox="0 0 500 500"><g id="freepik--background-simple--inject-346"><path d="M128.34,331.82a66,66,0,0,1-28.76-21.47c-26.62-34.17-25-83.69-5.92-121.07,27-52.87,85.07-88.73,143.71-93.22,63.9-4.9,147.83,32.15,173.06,94.12,13.42,33,3,95.91-43.33,96-9.44,0-18.46-4.42-25.68-10.5-16.13-13.59-25.15-33.83-41-47.71-23.79-20.81-46.9-5.71-62.09,16.59-17.09,25.1-28.51,55.42-51.55,76C169.56,336,147.64,339,128.34,331.82Z" style="fill:#99D9BD"></path><path d="M128.34,331.82a66,66,0,0,1-28.76-21.47c-26.62-34.17-25-83.69-5.92-121.07,27-52.87,85.07-88.73,143.71-93.22,63.9-4.9,147.83,32.15,173.06,94.12,13.42,33,3,95.91-43.33,96-9.44,0-18.46-4.42-25.68-10.5-16.13-13.59-25.15-33.83-41-47.71-23.79-20.81-46.9-5.71-62.09,16.59-17.09,25.1-28.51,55.42-51.55,76C169.56,336,147.64,339,128.34,331.82Z" style="fill:#fff;opacity:0.9"></path></g><g id="freepik--Shadow--inject-346"><ellipse id="freepik--path--inject-346" cx="250" cy="416.24" rx="193.89" ry="11.32" style="fill:#f5f5f5"></ellipse></g><g id="freepik--Waterfall--inject-346"><path d="M338.55,357.39,302.67,350s9.4-9.46,12.16-7.44c3.59,2.62,8.57-6.68,12.48-3.43,1.37,1.15.07,3.64.82,4.91,1.25,2.09,3.36,2.17,5.11,3.54C336.65,350.25,337.49,353.05,338.55,357.39Z" style="fill:#99D9BD"></path><path d="M338.55,357.39,302.67,350s9.4-9.46,12.16-7.44c3.59,2.62,8.57-6.68,12.48-3.43,1.37,1.15.07,3.64.82,4.91,1.25,2.09,3.36,2.17,5.11,3.54C336.65,350.25,337.49,353.05,338.55,357.39Z" style="opacity:0.2;isolation:isolate"></path><path d="M307.22,347.75s5.18-13.18,4-15.52-3.45,7.07-3.45,7.07-1.39-20.88-4.87-21.7.63,18,.63,18-9.92-27.5-14.73-26.13,10.71,27.16,10.71,27.16-9-11.66-12-9.5,9.92,13.28,9.92,13.28-6.12-2.77-6.55-.63S300.55,347.64,307.22,347.75Z" style="fill:#99D9BD"></path><path d="M307.22,347.75s5.18-13.18,4-15.52-3.45,7.07-3.45,7.07-1.39-20.88-4.87-21.7.63,18,.63,18-9.92-27.5-14.73-26.13,10.71,27.16,10.71,27.16-9-11.66-12-9.5,9.92,13.28,9.92,13.28-6.12-2.77-6.55-.63S300.55,347.64,307.22,347.75Z" style="fill:#fff;opacity:0.2;isolation:isolate"></path><path d="M309.78,346.25s11.65.27,13.12-1.33-6.44-.67-6.44-.67,15.75-7,15.41-9.89-13.74,5.56-13.74,5.56,18.48-15.44,16.05-18.77-18,16-18,16,6.48-10.24,4-11.92-7.47,11.42-7.47,11.42.41-5.51-1.36-5.25S308,341.05,309.78,346.25Z" style="fill:#99D9BD"></path><path d="M309.78,346.25s11.65.27,13.12-1.33-6.44-.67-6.44-.67,15.75-7,15.41-9.89-13.74,5.56-13.74,5.56,18.48-15.44,16.05-18.77-18,16-18,16,6.48-10.24,4-11.92-7.47,11.42-7.47,11.42.41-5.51-1.36-5.25S308,341.05,309.78,346.25Z" style="fill:#fff;opacity:0.2;isolation:isolate"></path><path d="M310.93,344.93s13.09-8.64,13.48-11.53-7.62,4.2-7.62,4.2,12-19.79,9.43-22.75-10.91,16.68-10.91,16.68,8.57-31.23,3.34-33S311,329.89,311,329.89s-.7-16.29-4.75-16.22.5,18.35.5,18.35-3.77-6.41-5.53-4.75S305,340.57,310.93,344.93Z" style="fill:#99D9BD"></path><path d="M310.93,344.93s13.09-8.64,13.48-11.53-7.62,4.2-7.62,4.2,12-19.79,9.43-22.75-10.91,16.68-10.91,16.68,8.57-31.23,3.34-33S311,329.89,311,329.89s-.7-16.29-4.75-16.22.5,18.35.5,18.35-3.77-6.41-5.53-4.75S305,340.57,310.93,344.93Z" style="fill:#fff;opacity:0.4;isolation:isolate"></path><path d="M322.74,354.13l-28.59-5.89s7.49-7.54,9.69-5.94c2.86,2.09,6.83-5.31,9.94-2.72,1.1.91.06,2.89.66,3.91,1,1.66,2.68,1.73,4.07,2.82C321.23,348.44,321.9,350.67,322.74,354.13Z" style="fill:#99D9BD"></path><path d="M110.56,264.55s.14-14.15-1.83-15.91-.7,7.83-.7,7.83-8.75-19-12.29-18.53,7,16.58,7,16.58-19.06-22.17-23.07-19.17,19.69,21.56,19.69,21.56-12.56-7.69-14.55-4.62,14,8.87,14,8.87-6.7-.4-6.35,1.75S104.29,266.83,110.56,264.55Z" style="fill:#99D9BD"></path><path d="M110.56,264.55s.14-14.15-1.83-15.91-.7,7.83-.7,7.83-8.75-19-12.29-18.53,7,16.58,7,16.58-19.06-22.17-23.07-19.17,19.69,21.56,19.69,21.56-12.56-7.69-14.55-4.62,14,8.87,14,8.87-6.7-.4-6.35,1.75S104.29,266.83,110.56,264.55Z" style="fill:#fff;opacity:0.2;isolation:isolate"></path><path d="M109.33,253s4.86-10.6,4-12.58-3.16,5.65-3.16,5.65-.18-17.22-3-18.06-.32,14.81-.32,14.81-6.88-23.07-10.9-22.16,7.55,22.82,7.55,22.82-6.85-10-9.38-8.36,7.54,11.37,7.54,11.37-4.9-2.55-5.36-.82S103.85,252.57,109.33,253Z" style="fill:#99D9BD"></path><path d="M109.33,253s4.86-10.6,4-12.58-3.16,5.65-3.16,5.65-.18-17.22-3-18.06-.32,14.81-.32,14.81-6.88-23.07-10.9-22.16,7.55,22.82,7.55,22.82-6.85-10-9.38-8.36,7.54,11.37,7.54,11.37-4.9-2.55-5.36-.82S103.85,252.57,109.33,253Z" style="fill:#fff;opacity:0.2;isolation:isolate"></path><path d="M118.75,256.91s13.08-8.64,13.48-11.53-7.63,4.2-7.63,4.2,12.05-19.79,9.43-22.75-10.91,16.68-10.91,16.68,8.58-31.23,3.34-33-7.62,31.41-7.62,31.41-.71-16.29-4.76-16.22.5,18.35.5,18.35-3.77-6.41-5.52-4.75S112.78,252.55,118.75,256.91Z" style="fill:#99D9BD"></path><path d="M118.75,256.91s13.08-8.64,13.48-11.53-7.63,4.2-7.63,4.2,12.05-19.79,9.43-22.75-10.91,16.68-10.91,16.68,8.58-31.23,3.34-33-7.62,31.41-7.62,31.41-.71-16.29-4.76-16.22.5,18.35.5,18.35-3.77-6.41-5.52-4.75S112.78,252.55,118.75,256.91Z" style="fill:#fff;opacity:0.4;isolation:isolate"></path><path d="M156.13,251.52s11.42-8.08,22.33-6.5,11.3,8.71,11.3,8.71,18.61-1.19,24.93,0,11.45,9.58,11.46,11.71-3.17,10.05,0,11.43,19.91-1,22.42,3.76,7.84,33.34,12.1,33.68,21.65-2.43,29.76,5.88,8,2.07,12.21,12.31,8.43,14.43,11.27,14.71S346,351,352.75,360.93A141,141,0,0,0,367.66,379s40.22,3.54,43.24,11.59H60.61S60,330,65.14,325.08A39.63,39.63,0,0,1,76.9,317.7s5.87-33.73,6.15-35.8,7.41-11,9-17.62,14-15.7,19.85-17.68,21,.73,22.31,4.92S156.13,251.52,156.13,251.52Z" style="fill:#263238"></path><path d="M410.9,390.59H60.61s-.07-6.48,0-15.38c.19-18.3,1-46.83,4.5-50.13A39.63,39.63,0,0,1,76.9,317.7a.65.65,0,0,0,0-.1c.32-1.85,5.16-29.66,6-34.94l.12-.76c.29-2.06,7.41-11,9-17.62s14-15.7,19.85-17.68,21,.73,22.31,4.92,21.93,0,21.93,0a43.59,43.59,0,0,1,12.54-5.75h0a24.59,24.59,0,0,1,9.77-.75c10.9,1.58,11.3,8.71,11.3,8.71s18.61-1.19,24.93,0c5.84,1.09,10.66,8.35,11.37,11.12a2.42,2.42,0,0,1,.09.59c0,2.13-3.17,10.05,0,11.43a17,17,0,0,0,5,.51c6.18.11,15.6-.22,17.43,3.25A27.77,27.77,0,0,1,250.1,285v0c2.8,9.46,7,29,10.57,29.31h.21c4.59.24,21.57-2.31,29.55,5.87,6.81,7,7.82,3.7,10.46,8.51a38,38,0,0,1,1.75,3.8c4.22,10.24,8.43,14.43,11.27,14.71,2.64.25,28.18,3.35,37.13,11.76a11.49,11.49,0,0,1,1.71,2A141,141,0,0,0,367.66,379S407.88,382.54,410.9,390.59Z" style="fill:#fff;opacity:0.4"></path><path d="M109.62,320.76s-14.3-5.19-15.68-4.92c-1.18.22-13.47,1.42-17,1.76.32-1.85,5.16-29.66,6-34.94,3.34,3.12,15.81,14.81,17.5,17.09C102.37,302.38,109.62,320.76,109.62,320.76Z" style="opacity:0.2;isolation:isolate"></path><path d="M189.76,253.73s-3.83.45-5.14-.76-5.77-6.32-15.93-7.2a24.59,24.59,0,0,1,9.77-.75C189.36,246.6,189.76,253.73,189.76,253.73Z" style="opacity:0.2;isolation:isolate"></path><path d="M231.14,277.38v0H210.57s-7.65-6.48-9-8.15-3.35-6.69-3.35-6.69,12.66,2.73,16.44,3.34c2.5.41,8-.43,11.36-1a2.42,2.42,0,0,1,.09.59c0,2.13-3.17,10.05,0,11.43A17,17,0,0,0,231.14,277.38Z" style="opacity:0.2;isolation:isolate"></path><path d="M260.88,314.32H240s-4.82-18.86-4.26-20.54,5.82,2.24,9.13,3.58c2.18.87,4.14-6.92,5.23-12.36,2.8,9.46,7,29,10.57,29.31Z" style="opacity:0.2;isolation:isolate"></path><path d="M351,359c-6.37,5.67-19.82,9.56-24.45,13.75-3.52,3.19-7.86,12-10.48,17.87H239c-16.64-1.19-29.6-2.08-30.2-2-1.72.22.56-69.77,12.26-65.37s31.45,29.54,31.45,29.54l18.38,12.37,8.49-9.36s8.67-5.65,11.1-4.28c2.21,1.24,8.79-16.86,10.46-22.79a38,38,0,0,1,1.75,3.8c4.22,10.24,8.43,14.43,11.27,14.71C316.55,347.46,342.09,350.56,351,359Z" style="opacity:0.2;isolation:isolate"></path><path d="M184.26,390.59H60.61s-.07-6.48,0-15.38a90.37,90.37,0,0,1,9-2.49c1.32-.34,17.14-18.59,17.14-18.59s14.5-7.17,16.78-6.22,18.56,18.56,21.46,22.56,14.51-1.36,19-1.55,15.82-18,17.67-21.71,13.3-6.86,13.3-6.86S182.5,377.28,184.26,390.59Z" style="opacity:0.2;isolation:isolate"></path><path d="M183.23,262.41v51.21h29.33a10.88,10.88,0,0,1,10.89,10.89v61.4H439a8.83,8.83,0,0,1,8.83,8.83v3.91H49.35V395.3a8.83,8.83,0,0,1,8.83-8.83H173.74V335.71a10.63,10.63,0,0,0-10.63-10.63h-9.76a9.14,9.14,0,0,1-9.15-9.15V263.85a12.6,12.6,0,0,0-10-12.33h38.14A10.88,10.88,0,0,1,183.23,262.41Z" style="fill:#99D9BD"></path><path d="M183.23,262.41v51.21h29.33a10.88,10.88,0,0,1,10.89,10.89v61.4H439a8.83,8.83,0,0,1,8.83,8.83v3.91H49.35V395.3a8.83,8.83,0,0,1,8.83-8.83H173.74V335.71a10.63,10.63,0,0,0-10.63-10.63h-9.76a9.14,9.14,0,0,1-9.15-9.15V263.85a12.6,12.6,0,0,0-10-12.33h38.14A10.88,10.88,0,0,1,183.23,262.41Z" style="fill:#fff;opacity:0.6000000000000001"></path><path d="M167.41,386.47c-2.9-3.21-2.9-7.74,0-5.34s4.22,5.43,6.33,2.33,5-7.2,7.38-3.3,7.12,4.77,9.5,2.36,6.09-7.34,8-4,3,6.28,7.24,3.38,9.76-3.31,10.82-1.78,0,2.57,4.22,1.78,11.86,1.61,7.91,4Z" style="fill:#99D9BD"></path><path d="M167.41,386.47c-2.9-3.21-2.9-7.74,0-5.34s4.22,5.43,6.33,2.33,5-7.2,7.38-3.3,7.12,4.77,9.5,2.36,6.09-7.34,8-4,3,6.28,7.24,3.38,9.76-3.31,10.82-1.78,0,2.57,4.22,1.78,11.86,1.61,7.91,4Z" style="fill:#fff;opacity:0.8"></path><path d="M144.68,314.31c-2.4-3.21-2.4-7.74,0-5.34s3.49,5.43,5.23,2.33,4.15-7.21,6.11-3.31,5.89,4.78,7.86,2.37,5-7.34,6.66-4,2.5,6.28,6,3.38,8.07-3.31,8.94-1.79,0,2.58,3.49,1.79,9.82,1.61,6.55,4Z" style="fill:#99D9BD"></path><path d="M144.68,314.31c-2.4-3.21-2.4-7.74,0-5.34s3.49,5.43,5.23,2.33,4.15-7.21,6.11-3.31,5.89,4.78,7.86,2.37,5-7.34,6.66-4,2.5,6.28,6,3.38,8.07-3.31,8.94-1.79,0,2.58,3.49,1.79,9.82,1.61,6.55,4Z" style="fill:#fff;opacity:0.8"></path><path d="M178.46,320.76c3.72,0,4.24,22.42,4.77,31.91s.53-8.7,4-10.81,3.16,9.31,5.54,7,1.05-17.85,3.69-19.16,2.9,14.1,5.54,14.17,4.25-11.27,5.16-11,3.28,12.4,5.12,9.76,2.64-13.45,4.75-8.7,4.16-9.66,2.11-14.51c0,0-.26,9.44-2.9,5.64s-.27-6.7-4.49-7.22-3.69,7.59-6.85,7.22-3.45-5.38-7.27-5.38-3.81,6.28-7.24,5.38-4.48-3.79-7.12-5.38S178.46,320.76,178.46,320.76Z" style="fill:#fff;opacity:0.2"></path><path d="M145.78,258.56c3.09,0,3.53,15.11,4,21.51s.44-5.87,3.29-7.29,2.62,6.27,4.59,4.74.88-12,3.07-12.91,2.4,9.5,4.59,9.55,3.54-7.6,4.29-7.42,2.72,8.35,4.25,6.57,2.19-9.06,3.94-5.86,3.45-6.51,1.75-9.77c0,0-.22,6.36-2.41,3.8s-.22-4.52-3.72-4.87-3.06,5.12-5.69,4.87-2.86-3.63-6-3.63-3.16,4.23-6,3.63-3.72-2.56-5.91-3.63A3.61,3.61,0,0,0,145.78,258.56Z" style="fill:#fff;opacity:0.2"></path></g><g id="freepik--Character--inject-346"><g id="freepik--group--inject-346"><path d="M321.32,189.63s7.37,16.47,8.07,18.35,20.61.57,20.61.57v5.29s-22.17,3.53-24.66,1-9.71-16.78-9.71-16.78Z" style="fill:#e4897b"></path><path d="M260.73,185s-7.31,2.92-9.59,3.18-12.57-17.39-12.57-17.39l-3.88,3s9.82,20.58,13.93,21.48,14.62-2.47,14.62-2.47Z" style="fill:#e4897b"></path><path d="M274.07,177.26c-5.89,1.4-19.87,7.71-19.87,7.71S257.63,200.55,259,200s16.55-2.62,16.55-2.62Z" style="fill:#99D9BD"></path><path d="M275.5,197.41l-2.09.29c-2.27.32-6,.85-9.12,1.34a50.47,50.47,0,0,0-5.34,1c-1.32.52-4.75-15.06-4.75-15.06s14-6.31,19.87-7.71l.44,6.16.77,10.86Z" style="fill:#fff;opacity:0.6000000000000001"></path><path d="M275.28,194.28a24.91,24.91,0,0,1-1.87,3.42c-2.27.32-6,.85-9.12,1.34-4.74-9.42,8.11-15.23,8.11-15.23a5.46,5.46,0,0,1,2.11-.39C278.17,183.53,277.56,189.21,275.28,194.28Z" style="opacity:0.2;isolation:isolate"></path><polygon points="254.86 183.41 259.6 200.04 257.23 200.68 252.88 184.97 254.86 183.41" style="fill:#99D9BD"></polygon><path d="M308.12,409.79s-17.07-92-17.28-143.8l17.31-.55s-2.48,47.54,7.42,144Z" style="fill:#e4897b"></path><path d="M265.53,409.1s-4.66-93.42,2.05-144.82L284.8,266S276,312.82,273,409.73Z" style="fill:#e4897b"></path><path d="M282.26,296.29c1.34-8.45,3-15.8,5-21.24.29,3.57,1.11,11.27,2.23,21.24h22.17c-.71-26.47-1.11-56.94-1.15-60.77H270c-1.75,9.56-5.2,32.44-7.62,60.77Z" style="fill:#99D9BD"></path><path d="M282.26,296.29c1.34-8.45,3-15.8,5-21.24.29,3.57,1.11,11.27,2.23,21.24h22.17c-.71-26.47-1.11-56.94-1.15-60.77H270c-1.75,9.56-5.2,32.44-7.62,60.77Z" style="fill:#fff;opacity:0.2"></path><path d="M287.26,275.06a109.2,109.2,0,0,0-4.53,17.54c-1.13-15.52,3.4-32,3.4-32Z" style="opacity:0.2;isolation:isolate"></path><polygon points="269.61 236 310.43 236 310.43 240.86 269.09 240.36 269.61 236" style="fill:#263238"></polygon><rect x="295.85" y="233.82" width="1.46" height="8.63" style="fill:#99D9BD"></rect><rect x="275.2" y="233.82" width="1.46" height="8.63" style="fill:#99D9BD"></rect><g style="opacity:0.2"><rect x="295.85" y="233.82" width="1.46" height="8.63" style="fill:#fff"></rect><rect x="275.2" y="233.82" width="1.46" height="8.63" style="fill:#fff"></rect></g><rect x="280.67" y="235.15" width="7.55" height="5.44" style="fill:#fff"></rect><path d="M227.32,172.33c-1.8-1.31,1.26-8.33,1.26-8.33l11.07,4.54s-.19,5.25-1.54,7C237.4,176.42,227.32,172.33,227.32,172.33Z" style="fill:#e4897b"></path><path d="M357.94,215.51c2.23-.15,3.38-7.72,3.38-7.72l-11.78-2.06s-2.64,4.54-2.42,6.72C347.24,213.6,357.94,215.51,357.94,215.51Z" style="fill:#e4897b"></path><polygon points="288.22 294.83 288.49 297.36 312.35 296.25 312.35 293.78 288.22 294.83" style="fill:#99D9BD"></polygon><polygon points="261.78 294.31 283.14 295.1 282.55 297.36 261.78 296.29 261.78 294.31" style="fill:#99D9BD"></polygon><path d="M310.56,236.79c1.08-23.23,7.91-56.11,7.91-56.11-19-4.57-44.4-3.42-44.4-3.42-5,17.74-4.86,46.36-4.44,59.53Z" style="fill:#99D9BD"></path><path d="M318.47,180.69s-1.29,6.22-2.84,15.17c-.87,5-1.81,10.83-2.66,16.92-1.12,8.06-2.06,16.53-2.41,24H269.63c-.42-13.17-.52-41.79,4.44-59.53,0,0,4.09-.18,10.21-.11a201.08,201.08,0,0,1,22.25,1.42A108.79,108.79,0,0,1,318.47,180.69Z" style="fill:#fff;opacity:0.6000000000000001"></path><path d="M306.53,178.57l-10.95,10.67-3-6.18c-6.39,22.73-8,48.24-8.11,50.59,1.14-29.42,4.39-46.35,6-50.92L285.21,187l-.93-9.82A201.08,201.08,0,0,1,306.53,178.57Z" style="opacity:0.2;isolation:isolate"></path><path d="M289.76,172.07a5.1,5.1,0,0,1-.39,3.24,4.53,4.53,0,0,1-2.2,1.38,8.81,8.81,0,0,0,2.8,2.76h5.61s2.54.56,3.51,0c.79-.45,1.63-.87,2.39-1.38a10.2,10.2,0,0,0,1.1-.89,5.47,5.47,0,0,1-2.64-2.86c-1-3.18.08-14,.08-14l-11.86,4.87s.1.27.23.72A36.58,36.58,0,0,1,289.76,172.07Z" style="fill:#e4897b"></path><path d="M298.16,167s-2.55,5.29-8.4,5.11a36.58,36.58,0,0,0-1.37-6.16l.73-.27Z" style="opacity:0.2;isolation:isolate"></path><path d="M282.69,139.76c-2.54.35-1.12,4.17.41,6.21s.55,4,2.39,6.79,8.93,3.1,10.11,5.25,2.16,5.6,6.12,4.9,8.93,3.45,9.57,0-2.66-9.73-9.57-15.48S287.18,139.14,282.69,139.76Z" style="fill:#99D9BD"></path><path d="M292.27,173.71c-8,2.35-8.22-18-5.44-23.85" style="fill:none;stroke:#99D9BD;stroke-linecap:round;stroke-linejoin:round;stroke-width:0.5px"></path><path d="M291.56,140s-6.71,7.89-4.16,14.09,12.57-10,12.57-10Z" style="fill:#263238"></path><path d="M296.54,169.28a9.28,9.28,0,0,1-11-2.54,10.41,10.41,0,0,1-2.5-7.2c0-.36.05-.72.1-1.09,1-6.73,6-16.48,13.82-16.49a10.08,10.08,0,0,1,9.1,14.54C303,163.14,301.41,167.2,296.54,169.28Z" style="fill:#e4897b"></path><path d="M295,154.22c-.19.56-.7.88-1.07.73s-.47-.72-.25-1.27.71-.88,1.07-.74S295.2,153.65,295,154.22Z" style="fill:#263238"></path><path d="M288.7,151.68c-.18.56-.7.88-1.06.73s-.47-.72-.25-1.27.7-.88,1.06-.74S288.91,151.15,288.7,151.68Z" style="fill:#263238"></path><path d="M290.59,152.76a21,21,0,0,1-4.58,3.67,3.43,3.43,0,0,0,2.47,1.58Z" style="fill:#de5753"></path><path d="M287.46,148.05a.35.35,0,0,0,.34.14,2.81,2.81,0,0,1,2.45.67.35.35,0,1,0,.51-.48h0a3.49,3.49,0,0,0-3.08-.89.35.35,0,0,0-.29.4h0A.41.41,0,0,0,287.46,148.05Z" style="fill:#263238"></path><path d="M297.23,152.21a.38.38,0,0,0,.21,0,.36.36,0,0,0,.16-.47h0a3.45,3.45,0,0,0-2.58-1.9.35.35,0,0,0-.38.31h0a.35.35,0,0,0,.31.38h0a2.88,2.88,0,0,1,2,1.54A.34.34,0,0,0,297.23,152.21Z" style="fill:#263238"></path><path d="M304.54,146l-1.72,2.77a2.43,2.43,0,0,1-.17,3.28c-2.09,2-2.46,6.52-1.27,8.93,0,0,.56-1,1.35-.37s-2,6.14-5,8c0,0,3.79-1.18,8-6.35,3.89-4.78,6.15-9.22,6-11.83Z" style="fill:#263238"></path><path d="M306.82,163.29a7,7,0,0,1-5.05,1.78c-2.45-.15-2.87-2.54-1.53-4.44,1.21-1.67,4-3.68,6.09-2.58S308.49,161.75,306.82,163.29Z" style="fill:#e4897b"></path><path d="M288.19,159.94a18.51,18.51,0,0,1-.11,2.79l.47.14c2.15.58,3.35.14,4-.52a3,3,0,0,0,.68-1.18,2.75,2.75,0,0,0,.14-.77,10.31,10.31,0,0,1-4.46-.27C288.47,160,288.19,159.94,288.19,159.94Z" style="fill:#263238"></path><path d="M288.93,160.13V161c2,.55,3.53.66,4.33.22a2.75,2.75,0,0,0,.14-.77A10.31,10.31,0,0,1,288.93,160.13Z" style="fill:#fff"></path><path d="M288.55,162.87c2.15.58,3.35.14,4-.52a7.21,7.21,0,0,0-2.52-.18A2.67,2.67,0,0,0,288.55,162.87Z" style="fill:#de5753"></path><path d="M291.56,140c-.66.57-.45,3.66,1.83,6s.41-1.61.41-1.61,4.83,4,5.26,3.37-.9-2.34-.9-2.34,3.79,3.94,7.9,4.44-.36-8.31-4.77-9.85S293.54,138.26,291.56,140Z" style="fill:#263238"></path><path d="M306,154s-5.69,17.42-13.69,19.76" style="fill:none;stroke:#99D9BD;stroke-linecap:round;stroke-linejoin:round;stroke-width:0.5px"></path><path d="M292.27,139.3l7.21-4.34s4.12,0,8.77,5.06,5.1,8.74,5.1,8.74l-2.17,5.56Z" style="fill:#99D9BD"></path><path d="M292.27,139.3l7.21-4.34s4.12,0,8.77,5.06,5.1,8.74,5.1,8.74l-2.17,5.56Z" style="fill:#fff;opacity:0.6000000000000001"></path><path d="M292.27,139.3a14.13,14.13,0,0,1,6.77,1.17c3.3,1.56,9.69,7.28,12.14,13.85,0,0-10.61-5.55-13.78-9S292.27,139.3,292.27,139.3Z" style="opacity:0.2;isolation:isolate"></path><path d="M282.69,139.76l9.58-.46a25.82,25.82,0,0,1,10.22,4.63c4.28,3.51,8.69,10.39,8.69,10.39l.11,8.59s-.05-3.53-5-5.71c-2.7-1.19-4.86-6.66-6.64-8.61s-6.7-2.41-8.28-3.79S287.23,140.21,282.69,139.76Z" style="fill:#99D9BD"></path><path d="M282.69,139.76l9.58-.46a25.82,25.82,0,0,1,10.22,4.63c4.28,3.51,8.69,10.39,8.69,10.39l.11,8.59s-.05-3.53-5-5.71c-2.7-1.19-4.86-6.66-6.64-8.61s-6.7-2.41-8.28-3.79S287.23,140.21,282.69,139.76Z" style="fill:#fff;opacity:0.6000000000000001"></path><polygon points="301.14 173.9 292.57 178.76 288.92 173.71 285.21 176.24 286.82 184 292.27 179.85 294.85 186.18 305.96 178.07 301.14 173.9" style="fill:#99D9BD"></polygon><polygon points="301.14 173.9 292.57 178.76 288.92 173.71 285.21 176.24 286.82 184 292.27 179.85 294.85 186.18 305.96 178.07 301.14 173.9" style="fill:#fff;opacity:0.6000000000000001"></polygon><polygon points="294.51 196.88 305.96 198.45 304.7 213.47 292.74 212.33 294.51 198.45 299.35 202.76 304.7 200.09 299.09 203.88 294.95 200.07 293.75 211 303.71 211.79 305.05 199.03 294.51 196.88" style="opacity:0.2;isolation:isolate"></polygon><polygon points="273.73 194.02 283.74 195.6 282.64 210.62 272.18 209.47 273.73 195.6 277.96 199.9 282.64 197.23 277.73 201.02 274.11 197.21 273.07 208.15 281.78 208.94 282.95 196.18 273.73 194.02" style="opacity:0.2;isolation:isolate"></polygon><path d="M275.66,414.67l-1.1-4.94-.18-8.91h-7.46a1.82,1.82,0,0,0-3-1.22l-1,8.23c-1.88,1.69-6.31,3.47-12.2,4.75-1.32.29-.9,3.46,2.31,3.46s10.22-.24,12.54-.24c3.77,0,6,.18,9,.23l.25,0A1.13,1.13,0,0,0,275.66,414.67Z" style="fill:#263238"></path><path d="M318.66,414.67l-1.1-4.94-1.65-8.91h-7.45a1.82,1.82,0,0,0-3-1.22l.44,8.23c-1.88,1.69-6.31,3.47-12.2,4.75-1.32.29-.9,3.46,2.31,3.46s10.22-.24,12.54-.24c3.77,0,6,.18,9,.23l.25,0A1.13,1.13,0,0,0,318.66,414.67Z" style="fill:#263238"></path><path d="M315.63,195.86c-.87,5-1.81,10.83-2.66,16.92-3.55-8.2-.09-20.15-.09-20.15A13.55,13.55,0,0,1,315.63,195.86Z" style="opacity:0.2;isolation:isolate"></path><path d="M318.47,180.69c5.88,5.09,10.89,21.63,10.89,21.63l-10.89,8.3-5.12-8.3a42.61,42.61,0,0,1,0-13.67C314.59,181.56,318.47,180.69,318.47,180.69Z" style="fill:#99D9BD"></path><path d="M318.47,180.69c5.88,5.09,10.89,21.63,10.89,21.63l-10.89,8.3-5.12-8.3a42.61,42.61,0,0,1,0-13.67C314.59,181.56,318.47,180.69,318.47,180.69Z" style="fill:#fff;opacity:0.6000000000000001"></path><polygon points="317.23 210.62 329.89 200.68 330.82 203 318.96 212.75 317.23 210.62" style="fill:#99D9BD"></polygon></g></g><g id="freepik--Plants--inject-346"><path d="M119.69,416H83.05s7.3-11.16,10.41-9.74c4,1.84,7-8.27,11.52-5.88,1.58.85.81,3.55,1.8,4.64,1.65,1.8,3.73,1.45,5.72,2.44C116.39,409.43,117.77,412,119.69,416Z" style="fill:#263238"></path><path d="M87.06,412.93s2.4-14,.74-16-2,7.61-2,7.61-5.58-20.16-9.15-20.27,4.24,17.49,4.24,17.49-15.26-24.94-19.7-22.61,16,24.43,16,24.43-11.17-9.61-13.63-6.9,12.4,11,12.4,11-6.55-1.47-6.55.71S80.5,414.17,87.06,412.93Z" style="fill:#99D9BD"></path><path d="M87.06,412.93s2.4-14,.74-16-2,7.61-2,7.61-5.58-20.16-9.15-20.27,4.24,17.49,4.24,17.49-15.26-24.94-19.7-22.61,16,24.43,16,24.43-11.17-9.61-13.63-6.9,12.4,11,12.4,11-6.55-1.47-6.55.71S80.5,414.17,87.06,412.93Z" style="fill:#fff;opacity:0.2;isolation:isolate"></path><path d="M89.26,410.93s11.47-2.08,12.58-3.94-6.44.64-6.44.64,14-10,13.09-12.8-12.33,8.22-12.33,8.22,15-18.85,11.93-21.62-14.38,19.25-14.38,19.25S98,389.34,95.19,388.2s-5,12.69-5,12.69-.71-5.48-2.4-4.86S86.45,406.21,89.26,410.93Z" style="fill:#99D9BD"></path><path d="M89.26,410.93s11.47-2.08,12.58-3.94-6.44.64-6.44.64,14-10,13.09-12.8-12.33,8.22-12.33,8.22,15-18.85,11.93-21.62-14.38,19.25-14.38,19.25S98,389.34,95.19,388.2s-5,12.69-5,12.69-.71-5.48-2.4-4.86S86.45,406.21,89.26,410.93Z" style="fill:#fff;opacity:0.2;isolation:isolate"></path><path d="M90.12,409.41s11.07-11.1,10.88-14-6.63,5.65-6.63,5.65,7.81-21.81,4.65-24.18S91.7,395.4,91.7,395.4s2.09-32.31-3.4-33-1.13,32.31-1.13,32.31-4-15.82-7.93-14.93,4.2,17.87,4.2,17.87-5-5.51-6.38-3.53S83.39,406.35,90.12,409.41Z" style="fill:#99D9BD"></path><path d="M90.12,409.41s11.07-11.1,10.88-14-6.63,5.65-6.63,5.65,7.81-21.81,4.65-24.18S91.7,395.4,91.7,395.4s2.09-32.31-3.4-33-1.13,32.31-1.13,32.31-4-15.82-7.93-14.93,4.2,17.87,4.2,17.87-5-5.51-6.38-3.53S83.39,406.35,90.12,409.41Z" style="fill:#fff;opacity:0.4;isolation:isolate"></path><path d="M103.55,416H74.35s5.82-8.89,8.29-7.77c3.23,1.47,5.62-6.58,9.19-4.68,1.26.68.64,2.83,1.43,3.7,1.31,1.43,3,1.16,4.56,1.94C100.91,410.78,102,412.82,103.55,416Z" style="fill:#263238"></path><path d="M103.55,416H74.35s5.82-8.89,8.29-7.77c3.23,1.47,5.62-6.58,9.19-4.68,1.26.68.64,2.83,1.43,3.7,1.31,1.43,3,1.16,4.56,1.94C100.91,410.78,102,412.82,103.55,416Z" style="fill:#fff;opacity:0.2"></path><path d="M379.15,395.61s11-40.13,19.85-52.84-5.37,28.72-5.37,28.72,12.46-26.41,16.37-25.58-12.87,29.36-12.87,29.36,12.78-22.83,18.38-19.1-16.32,27.2-16.32,27.2,19.67-14.74,21.63-10.64-19.05,17.2-19.05,17.2,20-4,22.09,3-19.89,6-19.89,6,10.17-.46,12.1,6.89S389.38,410.49,379.15,395.61Z" style="fill:#99D9BD"></path><path d="M379.15,395.61s11-40.13,19.85-52.84-5.37,28.72-5.37,28.72,12.46-26.41,16.37-25.58-12.87,29.36-12.87,29.36,12.78-22.83,18.38-19.1-16.32,27.2-16.32,27.2,19.67-14.74,21.63-10.64-19.05,17.2-19.05,17.2,20-4,22.09,3-19.89,6-19.89,6,10.17-.46,12.1,6.89S389.38,410.49,379.15,395.61Z" style="fill:#fff;opacity:0.2;isolation:isolate"></path><path d="M373.56,407.22s14.85-28.58,11.84-33.59-9.35,11.17-9.35,11.17,11.45-36.61,7.32-40.64-11.72,31.53-11.72,31.53,4-41.66,0-43.88-6,37.7-6,37.7-2.74-42.24-7.78-41.6,0,37.53,0,37.53-11.28-28.08-16.34-26.95,8.13,29.07,8.13,29.07-13.37-16.87-17.23-12.91,11.95,22.43,11.95,22.43-13.57-8.46-17.07-4.24,14.22,13.32,14.22,13.32-14.46,3.75-13.45,7.35,13.45,3.11,13.45,3.11S347,422.22,373.56,407.22Z" style="fill:#99D9BD"></path><path d="M373.56,407.22s14.85-28.58,11.84-33.59-9.35,11.17-9.35,11.17,11.45-36.61,7.32-40.64-11.72,31.53-11.72,31.53,4-41.66,0-43.88-6,37.7-6,37.7-2.74-42.24-7.78-41.6,0,37.53,0,37.53-11.28-28.08-16.34-26.95,8.13,29.07,8.13,29.07-13.37-16.87-17.23-12.91,11.95,22.43,11.95,22.43-13.57-8.46-17.07-4.24,14.22,13.32,14.22,13.32-14.46,3.75-13.45,7.35,13.45,3.11,13.45,3.11S347,422.22,373.56,407.22Z" style="fill:#fff;opacity:0.4;isolation:isolate"></path><path d="M405.48,338.92a2.25,2.25,0,1,1-2.25-2.25A2.25,2.25,0,0,1,405.48,338.92Z" style="fill:#99D9BD"></path><path d="M377.47,397.76s8.18-45.55,28.22-65.26" style="fill:none;stroke:#99D9BD;stroke-linecap:round;stroke-miterlimit:10"></path><path d="M408.33,332.5a2.64,2.64,0,1,1-2.64-2.64A2.64,2.64,0,0,1,408.33,332.5Z" style="fill:#99D9BD"></path><circle cx="397.62" cy="353.74" r="2.25" style="fill:#99D9BD"></circle><path d="M389.88,347.21a2.25,2.25,0,1,1-2.25-2.26A2.25,2.25,0,0,1,389.88,347.21Z" style="fill:#99D9BD"></path><path d="M396.87,361.9a2.25,2.25,0,1,1-2.25-2.25A2.26,2.26,0,0,1,396.87,361.9Z" style="fill:#99D9BD"></path><path d="M386.58,358.68a2.25,2.25,0,1,1-2.25-2.25A2.25,2.25,0,0,1,386.58,358.68Z" style="fill:#99D9BD"></path><path d="M397.79,335.14a2.25,2.25,0,1,1-2.25-2.25A2.25,2.25,0,0,1,397.79,335.14Z" style="fill:#99D9BD"></path><polyline points="395.54 335.14 395.54 346.03 405.69 343.51" style="fill:none;stroke:#99D9BD;stroke-linecap:round;stroke-miterlimit:10"></polyline><polyline points="387.63 347.21 390.54 355.77 397.62 354.18" style="fill:none;stroke:#99D9BD;stroke-linecap:round;stroke-miterlimit:10"></polyline><polyline points="384.33 358.68 386.67 365.13 394.62 361.9" style="fill:none;stroke:#99D9BD;stroke-linecap:round;stroke-miterlimit:10"></polyline><path d="M350.55,409.63C340,395,326.92,379.08,310.05,371.56" style="fill:none;stroke:#99D9BD;stroke-linecap:round;stroke-miterlimit:10"></path><path d="M307.58,372.48a2.64,2.64,0,1,0,1.54-3.39A2.63,2.63,0,0,0,307.58,372.48Z" style="fill:#99D9BD"></path><path d="M323,389.41a2.25,2.25,0,1,0,1.32-2.9A2.26,2.26,0,0,0,323,389.41Z" style="fill:#99D9BD"></path><path d="M330,379.79a2.25,2.25,0,1,0,1.31-2.9A2.25,2.25,0,0,0,330,379.79Z" style="fill:#99D9BD"></path><path d="M328.62,396a2.25,2.25,0,1,0,1.32-2.89A2.25,2.25,0,0,0,328.62,396Z" style="fill:#99D9BD"></path><path d="M337.12,389.38a2.25,2.25,0,1,0,1.32-2.9A2.27,2.27,0,0,0,337.12,389.38Z" style="fill:#99D9BD"></path><path d="M318.38,371.26a2.25,2.25,0,1,0,1.31-2.9A2.25,2.25,0,0,0,318.38,371.26Z" style="fill:#99D9BD"></path><polyline points="320.48 370.47 324.3 380.67 313.91 381.87" style="fill:none;stroke:#99D9BD;stroke-linecap:round;stroke-miterlimit:10"></polyline><polyline points="332.12 379 332.4 388.04 325.21 389.04" style="fill:none;stroke:#99D9BD;stroke-linecap:round;stroke-miterlimit:10"></polyline><polyline points="339.23 388.59 339.31 395.45 330.73 395.21" style="fill:none;stroke:#99D9BD;stroke-linecap:round;stroke-miterlimit:10"></polyline><path d="M307.54,416H427.78s-30.41-9.92-31.17-12.73-.74-4.76-4.44-7.21-8.79-3.95-10.2-6.63-5.78-7-7.29-8.27-19.55,7.81-19.76,8-5.23,10.05-6.94,12.25-13.51-.49-16.33,1.84-12.29,8.34-12.29,8.34S314.71,411,307.54,416Z" style="fill:#263238"></path><path d="M307.54,416H427.78s-30.41-9.92-31.17-12.73-.74-4.76-4.44-7.21-8.79-3.95-10.2-6.63-5.78-7-7.29-8.27-19.55,7.81-19.76,8-5.23,10.05-6.94,12.25-13.51-.49-16.33,1.84-12.29,8.34-12.29,8.34S314.71,411,307.54,416Z" style="fill:#fff;opacity:0.2"></path></g><g id="freepik--Animals--inject-346"><path d="M223.51,155.41s3.92-17.91,2.34-20-3.24,7.35-3.24,7.35-.7-5.79-3.22-5.18-.51,6.95-.51,6.95-1.33-2.46-3.14-1S216.59,155.25,223.51,155.41Z" style="fill:#99D9BD"></path><path d="M228.62,150.41c-3.16-2.47-7.66,2-7.66,2L207,132.9c-4.79,1.49.42,10.8.42,10.8s-6.61-4.39-6.86-1.44,5.59,5.17,7.42,5.76c-1.28-.37-4.35-1.05-4.69.73-.43,2.24,8.25,5.05,8.25,5.05s-.06.11-.15.31l-6.4.5L196,149s-2.32,2,1.39,6,7.59,2.41,7.59,2.41,2.37,5.25,10.72,6.17h.18C222.5,164.75,231.59,152.74,228.62,150.41Z" style="fill:#99D9BD"></path><path d="M228.62,150.41c-3.16-2.47-7.66,2-7.66,2L207,132.9c-4.79,1.49.42,10.8.42,10.8s-6.61-4.39-6.86-1.44,5.59,5.17,7.42,5.76c-1.28-.37-4.35-1.05-4.69.73-.43,2.24,8.25,5.05,8.25,5.05s-.06.11-.15.31l-6.4.5L196,149s-2.32,2,1.39,6,7.59,2.41,7.59,2.41,2.37,5.25,10.72,6.17h.18C222.5,164.75,231.59,152.74,228.62,150.41Z" style="fill:#fff;opacity:0.2"></path><path d="M229.24,152.32l2.38.75-2.35.61.9,1.6-1.84-.58A1.6,1.6,0,0,1,229.24,152.32Z" style="fill:#99D9BD"></path><path d="M227.5,152.65a.43.43,0,0,1-.54.28.42.42,0,0,1-.27-.54.43.43,0,0,1,.53-.28A.43.43,0,0,1,227.5,152.65Z" style="fill:#263238"></path><path d="M329.36,187.86a21.48,21.48,0,0,0-1.51,5.29c-.2,2.22-.47,2.73-1.85,1S323.41,186.08,329.36,187.86Z" style="fill:#99D9BD"></path><path d="M316.84,176.68s-1.85,1.88-2.2,1.88-3,.51-2.94,1.15,3.29.83,4.57,1S316.84,176.68,316.84,176.68Z" style="fill:#99D9BD"></path><path d="M329.23,180.67a5.34,5.34,0,0,0,4.25-4.22c1.06-3.9-12.42-8-13.42-15.26s9.76-15.1,15.9-7.54-1.18,7.81-1.18,7.81-5.79-.51-1.66,3.7S342,171.6,341.63,180s-9,7.07-10.81,5.19A6.23,6.23,0,0,1,329.23,180.67Z" style="fill:#99D9BD"></path><path d="M316.84,168.57s-.73-5.06-2.77-4.95.92,5.24.92,5.24Z" style="fill:#99D9BD"></path><path d="M315.93,167.41c-5.5-.49-7.13,5.39-4.35,6.69s4.35,0,4.35,0v5s-4.84,1.21-4,2.52,5.89,0,5.89,0l4.15,3.6a5.28,5.28,0,0,0,.35,4.56s-2.22-2.61-2.71-.81,3.72,5.88,5.29,5.88,2.28-3.43,2.28-3.43a8.87,8.87,0,0,0,5.66-7.84c.33-6.05-10.62-7.84-12.41-10.46s-1.47-3.61-1.47-3.61a4.69,4.69,0,0,0-.94-5.21C315.66,161.69,315.93,167.41,315.93,167.41Z" style="fill:#99D9BD"></path><path d="M315.93,167.41c-5.5-.49-7.13,5.39-4.35,6.69s4.35,0,4.35,0v5s-4.84,1.21-4,2.52,5.89,0,5.89,0l4.15,3.6a5.28,5.28,0,0,0,.35,4.56s-2.22-2.61-2.71-.81,3.72,5.88,5.29,5.88,2.28-3.43,2.28-3.43a8.87,8.87,0,0,0,5.66-7.84c.33-6.05-10.62-7.84-12.41-10.46s-1.47-3.61-1.47-3.61a4.69,4.69,0,0,0-.94-5.21C315.66,161.69,315.93,167.41,315.93,167.41Z" style="fill:#fff;opacity:0.2"></path><path d="M314.88,171.24c0,.38-.23.69-.51.69s-.51-.31-.51-.69.22-.69.51-.69S314.88,170.86,314.88,171.24Z" style="fill:#263238"></path><path d="M310.46,172.91a.71.71,0,0,1,.91.34C311.66,173.85,310.08,173.36,310.46,172.91Z" style="fill:#263238"></path><path d="M150,414.14c-5.1-6.49,2.77-21.87,18.79-23s24.92,11.72,25.52,16.47,11.47,5.57,11.47,5.57v3.06S154.35,419.68,150,414.14Z" style="fill:#99D9BD"></path><circle cx="206.44" cy="414.27" r="2.31" style="fill:#263238"></circle><path d="M195,412a.79.79,0,1,1-.79-.79A.79.79,0,0,1,195,412Z" style="fill:#263238"></path><path d="M193.87,405.94s3.54-13.09,1.16-18.63-1.16,7.8-1.16,7.8-4-16.11-7.28-17.3,1.85,8.44,1.85,8.44-12-11.73-15-10.41,3.71,5.23,3.71,5.23-16-5-17.43-2.73,5.28,2,5.28,2-16.88,1.45-17.15,3.16,5.41.79,5.41.79-9.1,5.81-8.83,7.39,4.06-.82,4.06-.82-7,8.07-7,10.71,3.7-1.19,3.7-1.19-3,5.8-2.11,8.44,2.77-2.37,2.5-2-2.9,7.49,8.44,9.42,27,3,29.28,1,1.71-8.53,1.71-8.53S190.47,403.74,193.87,405.94Z" style="fill:#99D9BD"></path><path d="M193.87,405.94s3.54-13.09,1.16-18.63-1.16,7.8-1.16,7.8-4-16.11-7.28-17.3,1.85,8.44,1.85,8.44-12-11.73-15-10.41,3.71,5.23,3.71,5.23-16-5-17.43-2.73,5.28,2,5.28,2-16.88,1.45-17.15,3.16,5.41.79,5.41.79-9.1,5.81-8.83,7.39,4.06-.82,4.06-.82-7,8.07-7,10.71,3.7-1.19,3.7-1.19-3,5.8-2.11,8.44,2.77-2.37,2.5-2-2.9,7.49,8.44,9.42,27,3,29.28,1,1.71-8.53,1.71-8.53S190.47,403.74,193.87,405.94Z" style="opacity:0.2;isolation:isolate"></path></g></svg>