<svg xmlns="http://www.w3.org/2000/svg" viewBox="0 0 500 500"><g id="freepik--background-simple--inject-4"><path d="M216.68,191.55C159.09,196,32.15,196.24,88.3,324.91c15.53,35.58,57,58,98,49,21.45-4.74,38.61-21.86,59.33-28.77,18.41-6.14,36.27-.51,54.7-7.91,61.28-24.6,116.86-141,86.05-191.31-16.68-27.23-55.82-37.21-78.33-11.64C283.36,162.26,280.21,186.65,216.68,191.55Z" style="fill:#99D9BD"></path><path d="M216.68,191.55C159.09,196,32.15,196.24,88.3,324.91c15.53,35.58,57,58,98,49,21.45-4.74,38.61-21.86,59.33-28.77,18.41-6.14,36.27-.51,54.7-7.91,61.28-24.6,116.86-141,86.05-191.31-16.68-27.23-55.82-37.21-78.33-11.64C283.36,162.26,280.21,186.65,216.68,191.55Z" style="fill:#fff;opacity:0.9"></path></g><g id="freepik--Shadow--inject-4"><ellipse id="freepik--path--inject-4" cx="250" cy="416.24" rx="193.89" ry="11.32" style="fill:#f5f5f5"></ellipse></g><g id="freepik--Bonfire--inject-4"><path d="M175.07,404.22a.2.2,0,0,1-.13,0c-3.16-2.1-3.68-6.36-3.57-9.56.19-5.27,2-12.11,6.54-15.47a.24.24,0,0,1,.28,0,.24.24,0,0,1,.09.27c-.77,2.32.58,5.48,2,7.11a10.78,10.78,0,0,1,3.34-8.16,17.63,17.63,0,0,1,3.24-2.17,18.64,18.64,0,0,0,2.93-1.91,14.43,14.43,0,0,0,4.16-5.93,16.05,16.05,0,0,0,0-11.1.24.24,0,0,1,.41-.24,39.76,39.76,0,0,1,9.21,20.22,15.71,15.71,0,0,0,.8-8.71.24.24,0,0,1,.41-.2c8.38,8.93,12,22.21,9.21,33.83a.24.24,0,0,1-.29.18.23.23,0,0,1-.17-.29c2.69-11.22-.67-24-8.56-32.81a16.17,16.17,0,0,1-1.31,9,.24.24,0,0,1-.46-.08,38.64,38.64,0,0,0-8.4-19.83,16.41,16.41,0,0,1-.36,10.19,15,15,0,0,1-4.3,6.13,19.8,19.8,0,0,1-3,2,16.58,16.58,0,0,0-3.16,2.11,10.26,10.26,0,0,0-3.14,8.39.24.24,0,0,1-.4.2c-1.54-1.36-3.26-4.62-2.79-7.35-4,3.39-5.62,9.72-5.8,14.67-.11,3.08.38,7.17,3.35,9.14a.25.25,0,0,1,.07.34A.26.26,0,0,1,175.07,404.22Z" style="fill:#99D9BD"></path><path d="M205,399.86H171.16c-1.44,0-2.61,2.81-2.61,6.28s1.17,6.27,2.61,6.27H205c1.44,0,2.61-2.81,2.61-6.27S206.42,399.86,205,399.86Z" style="fill:#99D9BD"></path><path d="M187.26,411.7a46.54,46.54,0,0,1-5.07-.28c-.86-.09-1.77-.21-2.77-.36l-.56-.09a14.17,14.17,0,0,1-2-.41c-.17-.05-.65-.19-.62-.61a.67.67,0,0,1,.4-.52,2,2,0,0,1,.6-.14,19.54,19.54,0,0,1,3.06,0c.66,0,1.36.07,2,.06h.14c2.26-.06,4.44-.19,6.47-.39l.32,0c1-.11,2.12-.22,3.18-.37.64-.1,1.2-.19,1.72-.3l.27-.05a2.11,2.11,0,0,0,1-.32.35.35,0,0,0,.06-.09.38.38,0,0,0-.07-.08.75.75,0,0,0-.22-.11,21.07,21.07,0,0,0-3.33-.74l-.51-.09-.54-.09a7.24,7.24,0,0,1-3.06-.95.72.72,0,0,1-.35-.52.69.69,0,0,1,.53-.61c2.6-.88,5.71-.51,8.69,0l2.25.44a42.47,42.47,0,0,0,6,.9,1.81,1.81,0,0,0,.91-.12.94.94,0,0,0,.34-.45,1.75,1.75,0,0,0-.2-1.84,3.18,3.18,0,0,0-1.78-.75,14.22,14.22,0,0,0-3.06,0c-5.48.33-11.09.48-16.65.47h-.07a9.65,9.65,0,0,0-2.16.16,2.17,2.17,0,0,0-1.53,1,.91.91,0,0,0,0,.77,2.69,2.69,0,0,0,1.72,1.19,11,11,0,0,0,2.93.2h.83a12.23,12.23,0,0,1,3.39.44,1.58,1.58,0,0,1,1.06.77.46.46,0,0,1-.08.46,1.43,1.43,0,0,1-1,.38,37.63,37.63,0,0,1-7.8-.4c-1-.12-2-.24-3-.44l-.34,0c-.69-.12-1.56-.26-1.88-.84a1.85,1.85,0,0,1-.18-.53,7.61,7.61,0,0,0-.64-1.57,5.08,5.08,0,0,1-.75-2.45c.07-1.62,2.05-1.58,2.8-1.57,2.5,0,5.06.15,7.53.25,6.93.28,14.11.57,20.95-.5a.14.14,0,0,1,.17.12.16.16,0,0,1-.13.18c-6.87,1.08-14.05.79-21,.5-2.47-.1-5-.2-7.53-.24-1.68,0-2.45.36-2.49,1.28a4.83,4.83,0,0,0,.72,2.29,7.55,7.55,0,0,1,.66,1.62,2.08,2.08,0,0,0,.15.48c.25.45,1.07.58,1.67.68l.35.06c1,.19,2,.31,2.95.43a37.22,37.22,0,0,0,7.75.4,1.25,1.25,0,0,0,.8-.26.18.18,0,0,0,0-.18,1.38,1.38,0,0,0-.86-.58,12.08,12.08,0,0,0-3.31-.43h-.82a10.78,10.78,0,0,1-3-.21,3,3,0,0,1-1.92-1.35,1.22,1.22,0,0,1,0-1,2.41,2.41,0,0,1,1.74-1.18,9.25,9.25,0,0,1,2.23-.18h.07c5.56,0,11.16-.14,16.64-.47a15.4,15.4,0,0,1,3.11,0,3.44,3.44,0,0,1,2,.84,2,2,0,0,1,.26,2.16,1.16,1.16,0,0,1-.47.6,2,2,0,0,1-1.08.16,41.42,41.42,0,0,1-6.05-.91l-2.25-.43c-2.93-.52-6-.88-8.53,0-.16.06-.33.19-.32.32s.07.18.22.29a7.05,7.05,0,0,0,2.93.89l.54.09.51.09a21.84,21.84,0,0,1,3.37.75,1.12,1.12,0,0,1,.31.15.45.45,0,0,1,.18.38.53.53,0,0,1-.13.25,2.26,2.26,0,0,1-1.18.41l-.26.05c-.52.1-1.09.2-1.74.3-1.06.15-2.14.26-3.19.37l-.32,0c-2,.2-4.22.33-6.5.39h-.11c-.7,0-1.4,0-2.07-.05a18.91,18.91,0,0,0-3,0,1.59,1.59,0,0,0-.49.11.4.4,0,0,0-.24.28c0,.12.12.21.41.29a13.36,13.36,0,0,0,2,.4l.56.09c1,.15,1.9.27,2.76.36a48.2,48.2,0,0,0,5.56.27c1.89,0,3.85-.15,6-.39a9.34,9.34,0,0,0,2.91-.65,8,8,0,0,0,1.39-.89,8.4,8.4,0,0,1,1-.71,9.28,9.28,0,0,1,4.41-1.08,24.64,24.64,0,0,1,3.95.28.15.15,0,0,1,.14.17.16.16,0,0,1-.17.13,26.94,26.94,0,0,0-3.91-.28,9,9,0,0,0-4.26,1,10.39,10.39,0,0,0-1,.69,8.28,8.28,0,0,1-1.44.93,9.76,9.76,0,0,1-3,.67c-2.16.24-4.14.37-6,.4Z" style="fill:#fff;opacity:0.2"></path><path d="M173.78,406.14c0,3.46-1.17,6.27-2.62,6.27H205c1.44,0,2.61-2.81,2.61-6.27Z" style="fill:#263238;opacity:0.2"></path><path d="M173.78,406.14c0,3.46-1.17,6.27-2.62,6.27s-2.61-2.81-2.61-6.27,1.17-6.28,2.61-6.28S173.78,402.67,173.78,406.14Z" style="fill:#fff;opacity:0.5"></path><path d="M171.42,411.7a.92.92,0,0,1-.58-.22c-.83-.66-1.43-2.82-1.49-5.36,0-2.35.52-4.91,1.56-5.12a.6.6,0,0,1,.52.14c.55.44.94,1.81,1,3.48,0,1.5-.32,3.18-1,3.33a.44.44,0,0,1-.38-.1,3.38,3.38,0,0,1-.64-2.27c0-1,.21-2.09.71-2.19a.36.36,0,0,1,.29.08,2.23,2.23,0,0,1,.43,1.49c0,.65-.13,1.38-.5,1.46a.28.28,0,0,1-.23-.06,1.49,1.49,0,0,1-.3-1c0-.34.06-.93.37-1a.16.16,0,0,1,.18.12.16.16,0,0,1-.12.19,1.36,1.36,0,0,0-.12.67,1.29,1.29,0,0,0,.19.77,2,2,0,0,0,.22-1.15,2,2,0,0,0-.32-1.26c-.23,0-.51.78-.49,1.86a3.17,3.17,0,0,0,.53,2c.06,0,.1,0,.12,0,.4-.08.83-1.34.79-3s-.39-2.86-.85-3.23a.33.33,0,0,0-.27-.08c-.68.14-1.36,2.1-1.3,4.8.05,2.42.61,4.53,1.36,5.13a.6.6,0,0,0,.49.14.16.16,0,0,1,.19.12.17.17,0,0,1-.12.19Z" style="fill:#99D9BD"></path><path d="M210.1,392.44H176.28c-1.44,0-2.61,2.81-2.61,6.27s1.17,6.28,2.61,6.28H210.1c1.44,0,2.61-2.81,2.61-6.28S211.54,392.44,210.1,392.44Z" style="fill:#99D9BD"></path><path d="M192.38,404.27a49.13,49.13,0,0,1-5.07-.27c-.86-.09-1.77-.21-2.77-.37l-.56-.08a13.9,13.9,0,0,1-2-.41c-.18-.05-.65-.19-.62-.61a.65.65,0,0,1,.4-.52,1.5,1.5,0,0,1,.6-.14,19.41,19.41,0,0,1,3.05,0c.67,0,1.36.07,2,.06h.14c2.26-.05,4.44-.18,6.47-.38l.31,0c1.05-.1,2.13-.21,3.19-.36.64-.1,1.2-.2,1.72-.3l.27-.05a2.19,2.19,0,0,0,1-.32.21.21,0,0,0,.05-.09.17.17,0,0,0-.06-.09.9.9,0,0,0-.22-.1,21.35,21.35,0,0,0-3.33-.75l-.52-.08-.53-.09a7.24,7.24,0,0,1-3.07-.95.77.77,0,0,1-.34-.53c0-.29.26-.51.53-.61,2.6-.87,5.71-.51,8.68,0,.76.13,1.51.28,2.26.43a42.54,42.54,0,0,0,6,.9,1.68,1.68,0,0,0,.91-.12.84.84,0,0,0,.34-.45,1.7,1.7,0,0,0-.2-1.83,3.19,3.19,0,0,0-1.77-.76,15.64,15.64,0,0,0-3.06,0c-5.49.33-11.09.49-16.65.47h-.07a9,9,0,0,0-2.16.17,2.14,2.14,0,0,0-1.53,1,.91.91,0,0,0,0,.77,2.71,2.71,0,0,0,1.72,1.2,10.93,10.93,0,0,0,2.93.2h.83a12.25,12.25,0,0,1,3.39.43c.42.13.94.41,1.06.78a.51.51,0,0,1-.08.46,1.43,1.43,0,0,1-1,.38,37.76,37.76,0,0,1-7.81-.4c-1-.12-2-.24-3-.44l-.34-.06c-.7-.11-1.56-.25-1.88-.83a1.91,1.91,0,0,1-.18-.54,7.85,7.85,0,0,0-.64-1.57,5,5,0,0,1-.75-2.44c.07-1.63,2.05-1.59,2.8-1.57,2.5,0,5,.14,7.52.25,6.94.28,14.11.57,21-.51a.17.17,0,0,1,.18.13.16.16,0,0,1-.13.17c-6.87,1.08-14.06.79-21,.51-2.47-.1-5-.21-7.52-.25-1.69,0-2.45.36-2.49,1.28a4.76,4.76,0,0,0,.72,2.3,7.69,7.69,0,0,1,.66,1.61,1.94,1.94,0,0,0,.15.48c.25.45,1.07.59,1.67.68l.35.06c1,.2,2,.32,3,.44a37.82,37.82,0,0,0,7.74.4,1.35,1.35,0,0,0,.81-.26.21.21,0,0,0,0-.19,1.36,1.36,0,0,0-.85-.58,12.5,12.5,0,0,0-3.31-.42h-.83a11.23,11.23,0,0,1-3-.21,3,3,0,0,1-1.91-1.35,1.18,1.18,0,0,1,0-1,2.4,2.4,0,0,1,1.74-1.19,9.78,9.78,0,0,1,2.23-.17h.07c5.56,0,11.15-.14,16.63-.47a15.49,15.49,0,0,1,3.12,0,3.49,3.49,0,0,1,1.95.85,1.94,1.94,0,0,1,.26,2.16,1.18,1.18,0,0,1-.46.6,2,2,0,0,1-1.08.15,41.41,41.41,0,0,1-6-.9c-.75-.15-1.5-.3-2.25-.43-2.93-.52-6-.88-8.53,0-.17.06-.33.18-.33.31a.54.54,0,0,0,.23.3,7,7,0,0,0,2.92.89l.54.09.52.08a21.87,21.87,0,0,1,3.37.76,1.12,1.12,0,0,1,.31.15.43.43,0,0,1,.18.37.46.46,0,0,1-.14.26,2.31,2.31,0,0,1-1.17.41l-.26.05c-.53.1-1.09.2-1.74.3-1.06.15-2.15.26-3.19.37l-.32,0c-2,.2-4.23.33-6.5.38h-.12c-.7,0-1.39,0-2.06-.06a18.91,18.91,0,0,0-3,0,1.4,1.4,0,0,0-.5.11.38.38,0,0,0-.23.27c0,.12.12.21.41.3a14.31,14.31,0,0,0,2,.4l.56.08c1,.16,1.9.28,2.76.37a48.37,48.37,0,0,0,5.57.27c1.89,0,3.85-.16,6-.39a9.62,9.62,0,0,0,2.92-.65,7.52,7.52,0,0,0,1.39-.9,11.45,11.45,0,0,1,1-.71,9.37,9.37,0,0,1,4.41-1.07,26.08,26.08,0,0,1,3.95.27.16.16,0,0,1,.13.17.15.15,0,0,1-.17.13,25.46,25.46,0,0,0-3.91-.27,9,9,0,0,0-4.26,1,8.73,8.73,0,0,0-1,.69,8.68,8.68,0,0,1-1.44.93,9.82,9.82,0,0,1-3,.67c-2.17.24-4.14.36-6,.39Z" style="fill:#fff;opacity:0.2"></path><path d="M178.89,398.71c0,3.47-1.16,6.28-2.61,6.28H210.1c1.44,0,2.61-2.81,2.61-6.28Z" style="fill:#263238;opacity:0.2"></path><path d="M178.9,398.71c0,3.47-1.18,6.28-2.62,6.28s-2.61-2.81-2.61-6.28,1.17-6.27,2.61-6.27S178.9,395.25,178.9,398.71Z" style="fill:#fff;opacity:0.5"></path><path d="M176.54,404.28a.9.9,0,0,1-.58-.22c-.84-.67-1.43-2.82-1.49-5.36-.05-2.35.51-4.91,1.55-5.12a.63.63,0,0,1,.53.14c.55.44.93,1.8,1,3.47,0,1.51-.32,3.19-1,3.34a.45.45,0,0,1-.38-.11,3.29,3.29,0,0,1-.64-2.26c0-1,.21-2.09.71-2.19a.33.33,0,0,1,.29.08,2.19,2.19,0,0,1,.43,1.49c0,.65-.14,1.38-.5,1.46a.32.32,0,0,1-.23-.06,1.49,1.49,0,0,1-.3-1c0-.34.06-.93.36-1a.15.15,0,0,1,.19.12.15.15,0,0,1-.12.18,1.29,1.29,0,0,0-.12.68,1.28,1.28,0,0,0,.18.76,1.94,1.94,0,0,0,.23-1.14,2.08,2.08,0,0,0-.32-1.26c-.24,0-.52.78-.49,1.86a3.19,3.19,0,0,0,.52,2c.06.05.1.05.13,0,.4-.08.82-1.34.79-3,0-1.53-.39-2.86-.86-3.24a.35.35,0,0,0-.26-.08c-.68.14-1.37,2.11-1.31,4.81.06,2.42.62,4.52,1.37,5.12a.61.61,0,0,0,.49.15.15.15,0,0,1,.06.3Z" style="fill:#99D9BD"></path><path d="M216.09,401H182.28c-1.45,0-2.62,2.81-2.62,6.28s1.17,6.27,2.62,6.27h33.81c1.44,0,2.61-2.81,2.61-6.27S217.53,401,216.09,401Z" style="fill:#99D9BD"></path><path d="M198.37,412.84a48.86,48.86,0,0,1-5.06-.28c-.87-.09-1.78-.21-2.78-.37l-.56-.08a13.77,13.77,0,0,1-2-.41c-.18-.05-.66-.19-.63-.61a.66.66,0,0,1,.41-.52,1.45,1.45,0,0,1,.59-.14,19.55,19.55,0,0,1,3.06,0c.67,0,1.36.07,2,.06h.13c2.26-.05,4.44-.18,6.48-.38l.31,0c1-.11,2.12-.22,3.18-.37.64-.1,1.2-.2,1.72-.3l.28-.05a2.11,2.11,0,0,0,1-.32.27.27,0,0,0,.06-.09.21.21,0,0,0-.07-.09.76.76,0,0,0-.22-.1,22.27,22.27,0,0,0-3.33-.75l-.51-.08-.54-.09a7.24,7.24,0,0,1-3.06-.95.71.71,0,0,1-.34-.53.69.69,0,0,1,.53-.6c2.59-.88,5.7-.51,8.68,0l2.25.44a42.46,42.46,0,0,0,6,.89,1.81,1.81,0,0,0,.91-.11.86.86,0,0,0,.34-.46,1.7,1.7,0,0,0-.2-1.83,3.11,3.11,0,0,0-1.78-.75,14.8,14.8,0,0,0-3,0c-5.49.33-11.09.49-16.66.48h-.07a9.7,9.7,0,0,0-2.16.16,2.1,2.1,0,0,0-1.52,1,.85.85,0,0,0,0,.76,2.7,2.7,0,0,0,1.73,1.2,10.89,10.89,0,0,0,2.92.2h.84a12,12,0,0,1,3.39.44,1.63,1.63,0,0,1,1.06.77.49.49,0,0,1-.09.46,1.41,1.41,0,0,1-1,.38,37.69,37.69,0,0,1-7.81-.4c-1-.12-2-.24-3-.44l-.34-.06c-.69-.11-1.56-.25-1.88-.83a2.21,2.21,0,0,1-.18-.53,6.65,6.65,0,0,0-.64-1.57,5.08,5.08,0,0,1-.75-2.45c.07-1.62,2.06-1.58,2.8-1.57,2.5,0,5.06.15,7.53.25,6.94.28,14.11.57,21-.51a.16.16,0,0,1,.17.13.15.15,0,0,1-.13.17c-6.86,1.09-14,.79-21,.51-2.47-.1-5-.21-7.52-.25-1.7,0-2.45.37-2.49,1.28a4.81,4.81,0,0,0,.71,2.3,7.55,7.55,0,0,1,.66,1.62,1.85,1.85,0,0,0,.16.47c.25.46,1.06.59,1.66.68l.35.06c1,.2,2,.32,3,.44a37.82,37.82,0,0,0,7.74.4,1.29,1.29,0,0,0,.8-.26.18.18,0,0,0,0-.18,1.34,1.34,0,0,0-.86-.58,12,12,0,0,0-3.3-.43h-.83a11.17,11.17,0,0,1-3-.21,3,3,0,0,1-1.92-1.35,1.18,1.18,0,0,1,0-1,2.4,2.4,0,0,1,1.73-1.19,9.82,9.82,0,0,1,2.23-.17h.07c5.56,0,11.16-.14,16.64-.47a14.8,14.8,0,0,1,3.12,0,3.44,3.44,0,0,1,1.95.84,1.94,1.94,0,0,1,.26,2.16,1.19,1.19,0,0,1-.47.6,2.07,2.07,0,0,1-1.08.16,43,43,0,0,1-6.05-.91c-.74-.15-1.49-.3-2.24-.43-2.94-.52-6-.88-8.54,0-.16.06-.33.19-.32.31s.08.18.22.3a7.05,7.05,0,0,0,2.93.89l.54.09.51.09a20.73,20.73,0,0,1,3.37.75,1,1,0,0,1,.31.15.43.43,0,0,1,.19.37.52.52,0,0,1-.14.26,2.34,2.34,0,0,1-1.17.41l-.27.05c-.52.1-1.09.2-1.73.3-1.07.15-2.15.26-3.2.37l-.31,0c-2,.2-4.23.33-6.5.39h-.12c-.7,0-1.39,0-2.07,0a17.8,17.8,0,0,0-3,0,1.35,1.35,0,0,0-.49.11.43.43,0,0,0-.24.27c0,.12.12.22.41.3a13.36,13.36,0,0,0,2,.4l.56.08c1,.16,1.9.28,2.76.37a48.2,48.2,0,0,0,5.56.27c1.89,0,3.86-.15,6-.39a9.69,9.69,0,0,0,2.92-.65,8.33,8.33,0,0,0,1.38-.89,9.26,9.26,0,0,1,1-.71,9.46,9.46,0,0,1,4.41-1.08,26.13,26.13,0,0,1,4,.27.16.16,0,0,1,.13.17.14.14,0,0,1-.17.13,25.64,25.64,0,0,0-3.91-.27,9,9,0,0,0-4.26,1,8.85,8.85,0,0,0-1,.69,8.28,8.28,0,0,1-1.44.93,9.69,9.69,0,0,1-3,.67,60.18,60.18,0,0,1-6,.39Z" style="fill:#fff;opacity:0.2"></path><path d="M184.89,407.28c0,3.46-1.17,6.27-2.61,6.27h33.81c1.44,0,2.62-2.81,2.62-6.27Z" style="fill:#263238;opacity:0.2"></path><path d="M184.89,407.28c0,3.46-1.17,6.27-2.61,6.27s-2.62-2.81-2.62-6.27,1.17-6.28,2.62-6.28S184.89,403.81,184.89,407.28Z" style="fill:#fff;opacity:0.5"></path><path d="M182.53,412.84a.92.92,0,0,1-.58-.22c-.83-.66-1.43-2.82-1.48-5.36-.06-2.35.51-4.91,1.55-5.12a.6.6,0,0,1,.52.14c.56.44.94,1.81,1,3.48,0,1.5-.31,3.18-1,3.33a.49.49,0,0,1-.39-.1,3.46,3.46,0,0,1-.64-2.27c0-1,.22-2.09.71-2.19a.36.36,0,0,1,.29.08,2.21,2.21,0,0,1,.43,1.49c0,.65-.13,1.38-.49,1.46a.35.35,0,0,1-.24-.06,1.55,1.55,0,0,1-.3-1c0-.34.07-.93.37-1a.15.15,0,0,1,.18.12.15.15,0,0,1-.12.19,1.43,1.43,0,0,0-.11.67,1.2,1.2,0,0,0,.18.76,1.86,1.86,0,0,0,.22-1.14,2,2,0,0,0-.31-1.26c-.24,0-.52.78-.5,1.86a3.24,3.24,0,0,0,.53,2c.06.05.1.05.12,0,.41-.08.83-1.34.79-3,0-1.53-.38-2.86-.85-3.23a.33.33,0,0,0-.27-.09c-.68.14-1.36,2.11-1.3,4.81.05,2.42.62,4.52,1.37,5.12a.59.59,0,0,0,.49.15.16.16,0,0,1,.18.12.16.16,0,0,1-.12.19Z" style="fill:#99D9BD"></path></g><g id="freepik--Tree--inject-4"><rect x="226.65" y="91.42" width="16.24" height="316.47" style="fill:#263238"></rect><path d="M218.18,228.44h0a3.36,3.36,0,0,0-2.26,4.77l19.33,38.7a3.36,3.36,0,0,0,3.74,1.77h0a3.36,3.36,0,0,0,2.26-4.77l-19.32-38.7A3.35,3.35,0,0,0,218.18,228.44Z" style="fill:#263238"></path><polygon points="187.1 122.68 232.48 106.4 232.48 55.67 187.1 100.66 187.1 122.68" style="fill:#99D9BD"></polygon><polygon points="277.87 122.68 232.48 106.4 232.48 55.67 277.87 100.66 277.87 122.68" style="fill:#99D9BD"></polygon><polygon points="169.38 184.34 232.48 162.7 232.48 95.23 169.38 155.07 169.38 184.34" style="fill:#99D9BD"></polygon><polygon points="295.59 184.34 232.48 162.7 232.48 95.23 295.59 155.07 295.59 184.34" style="fill:#99D9BD"></polygon><polygon points="172.34 219.08 232.48 208.85 232.48 157.78 172.34 205.23 172.34 219.08" style="fill:#99D9BD"></polygon><polygon points="292.62 219.08 232.48 208.85 232.48 157.78 292.62 205.23 292.62 219.08" style="fill:#99D9BD"></polygon></g><g id="freepik--Tent--inject-4"><polygon points="234.71 380.84 272.43 280.16 310.16 380.84 310.16 415.13 234.71 415.13 234.71 380.84" style="fill:#99D9BD"></polygon><path d="M239.93,415.13H276.8l-4.37-118.95C268.15,346.52,254.58,391,239.93,415.13Z" style="fill:#fff;opacity:0.5"></path><path d="M272.43,280.16h0L234.71,380.84h-2.65l36.87-98.41A3.69,3.69,0,0,1,272.43,280.16Z" style="fill:#99D9BD"></path><path d="M272.43,280.16h0L234.71,380.84h-2.65l36.87-98.41A3.69,3.69,0,0,1,272.43,280.16Z" style="fill:#263238;opacity:0.2"></path><path d="M385.87,280.16H272.43l37.73,100.68H426.24l-36.87-98.41A3.69,3.69,0,0,0,385.87,280.16Z" style="fill:#99D9BD"></path><path d="M272.43,280.16h0l37.73,100.68h2.64l-36.87-98.41A3.68,3.68,0,0,0,272.43,280.16Z" style="fill:#fff;opacity:0.5"></path><rect x="310.16" y="380.84" width="111.71" height="34.29" style="fill:#99D9BD"></rect><polygon points="421.87 380.84 310.16 380.84 310.16 394.85 421.87 389.57 421.87 380.84" style="fill:#263238;opacity:0.2"></polygon><path d="M219.63,415.51a.31.31,0,0,1-.13,0,.39.39,0,0,1-.22-.49l12.85-34.29a.38.38,0,0,1,.48-.22.39.39,0,0,1,.23.49L220,415.26A.39.39,0,0,1,219.63,415.51Z" style="fill:#263238"></path><path d="M438.72,415.51a.38.38,0,0,1-.35-.25L425.52,381a.37.37,0,0,1,.22-.49.39.39,0,0,1,.49.22L439.07,415a.37.37,0,0,1-.22.49A.31.31,0,0,1,438.72,415.51Z" style="fill:#263238"></path><path d="M325.65,415.51a.38.38,0,0,1-.35-.25L312.45,381a.38.38,0,0,1,.71-.27L326,415a.39.39,0,0,1-.22.49A.35.35,0,0,1,325.65,415.51Z" style="fill:#263238"></path><path d="M272.43,296.18A376.12,376.12,0,0,1,259.94,366a66.52,66.52,0,0,0,15.56,13.71Z" style="fill:#fff;opacity:0.5"></path></g><g id="freepik--character-1--inject-4"><path d="M88.46,320.85c-3.1,9.79,9.43,14.49,0,21.09,9.71,3.35,22.23,3.34,26.11-4.5,2.9-5.86,2.55-18.28-6.41-20.25C107.24,309.68,90.8,313.48,88.46,320.85Z" style="fill:#263238"></path><path d="M119.45,384.6l-18.21,3.34c-1.66,9.52,2.49,21.76,18.85,21.76,19.93,0,38.9-3.82,36.07-13C152.76,385.71,119.45,384.6,119.45,384.6Z" style="fill:#99D9BD"></path><path d="M119.45,384.6l-18.21,3.34c-1.66,9.52,2.49,21.76,18.85,21.76,19.93,0,38.9-3.82,36.07-13C152.76,385.71,119.45,384.6,119.45,384.6Z" style="opacity:0.2"></path><path d="M100.77,401c-3.72,3.16-10.35,9.24-9.45,9.95,4.41,3.51,9.11-4.2,13.89-3C104.53,404.51,100.77,401,100.77,401Z" style="fill:#263238"></path><path d="M92.53,387.94c-1.66,9.52,2.49,24.92,18.85,24.92,26.85,0,42.52.43,44.69-8.9s-36.27-10.38-36.27-10.38a13.1,13.1,0,0,0,1.55-10.89C103.63,383,92.53,387.94,92.53,387.94Z" style="fill:#99D9BD"></path><path d="M118,350.91c1.08,3.25,2.33,6.62,3.62,9.84.67,1.61,1.37,3.21,2.12,4.75a45.82,45.82,0,0,0,2.38,4.45,22.75,22.75,0,0,0,1.33,2l.34.46a1.41,1.41,0,0,0,.14.18,1.22,1.22,0,0,0,.27.24c.36.32,1.68.32,3.09-.14a34.67,34.67,0,0,0,8.72-4.82l.07,0a1.74,1.74,0,0,1,2.35,2.53,28.66,28.66,0,0,1-1.95,2.13,27.83,27.83,0,0,1-2.11,1.95,23.46,23.46,0,0,1-5,3.34,11.92,11.92,0,0,1-3.28,1.07,8.07,8.07,0,0,1-4.18-.34,6.94,6.94,0,0,1-2-1.17,7.64,7.64,0,0,1-.83-.77l-.51-.6c-.69-.79-1.28-1.6-1.86-2.41a62,62,0,0,1-5.44-10.07A93.62,93.62,0,0,1,111.32,353a3.5,3.5,0,0,1,6.67-2.12Z" style="fill:#ffb573"></path><path d="M115.6,347.2c5.76,1.82,7.41,11.49,7.41,11.49l-8.34,9.7s-4.14-7.4-4.72-10.68S112.29,346.15,115.6,347.2Z" style="fill:#99D9BD"></path><path d="M147.67,367.66,147,365a1.19,1.19,0,0,0-1.44-.87l-1.92.48a3.74,3.74,0,0,0-1.92,1.18l-3.11,3.59,1.53,2.52a11.36,11.36,0,0,0,4-1.42l2.9-1.49A1.18,1.18,0,0,0,147.67,367.66Z" style="fill:#ffb573"></path><path d="M114.4,346.82c-7.39-1.53-13.13-2.41-21.12,1a10.1,10.1,0,0,0-5.94,11c1.78,10.45,4.91,19.66,5.19,29.15,18.43,7.62,29.12.82,28.82-5.25-4.35-11.39-1.24-24.37-2.79-30.72C117.76,348.73,116.84,347.33,114.4,346.82Z" style="fill:#263238"></path><path d="M99.3,333.5c.7,3.58,1.58,10.87-.93,13.25A53.27,53.27,0,0,0,108,353c3.74-4.9,1.47-6.28,1.47-6.28-4-1-4.07-4.6-3.37-7.38Z" style="fill:#ffb573"></path><path d="M102.09,335.88l4,3.45a11.48,11.48,0,0,0-.35,2c-1.52-.22-3.92-1.52-4.25-3.17A4.82,4.82,0,0,1,102.09,335.88Z" style="opacity:0.2"></path><path d="M93.3,327.75c1.65,5.76,2.23,8.23,5.84,10.57,5.44,3.51,12.14.22,12.24-5.91.09-5.52-2.63-14-8.86-15.05A8.17,8.17,0,0,0,93.3,327.75Z" style="fill:#ffb573"></path><path d="M107.55,318.28c-.33,3.74-9,4.57-11.78,4.2,2.57,4.26,1,9.26-1.26,9.36-3.52-4.28-3.75-10.17-3.75-10.17S98.05,311.4,107.55,318.28Z" style="fill:#263238"></path><path d="M108.25,315.47c-1.18-1.31-1,2.46-1.4,2.95s.18.89.7.72A2.19,2.19,0,0,0,108.25,315.47Z" style="fill:#99D9BD"></path><path d="M103,327.23c.1.48.44.81.75.74s.48-.51.37-1-.44-.8-.75-.73S102.84,326.76,103,327.23Z" style="fill:#263238"></path><path d="M108.32,326c.1.48.44.8.75.74s.48-.51.37-1-.44-.8-.75-.73S108.21,325.57,108.32,326Z" style="fill:#263238"></path><path d="M108.55,325.11l1.07-.58S109.24,325.55,108.55,325.11Z" style="fill:#263238"></path><path d="M106.85,327.26a12.93,12.93,0,0,0,2.37,2.66,2.12,2.12,0,0,1-1.63.69Z" style="fill:#ed893e"></path><path d="M105.42,333.05a6.71,6.71,0,0,0,.71-.1.16.16,0,0,0,.11-.18.15.15,0,0,0-.17-.1,3.89,3.89,0,0,1-3.4-.79.13.13,0,0,0-.2,0,.15.15,0,0,0,0,.2A4,4,0,0,0,105.42,333.05Z" style="fill:#263238"></path><path d="M92.92,333.49a4.39,4.39,0,0,0,2.79,1.84c1.51.28,2.12-1.11,1.59-2.46s-1.85-2.82-3.31-2.49A2,2,0,0,0,92.92,333.49Z" style="fill:#ffb573"></path><path d="M100.71,325.14A.28.28,0,0,0,101,325a3.36,3.36,0,0,1,2.5-1,.29.29,0,1,0,0-.58,3.91,3.91,0,0,0-3,1.3.28.28,0,0,0,.06.4Z" style="fill:#263238"></path><path d="M109.43,322.11a.29.29,0,0,0,.24-.16.28.28,0,0,0-.13-.38,2.84,2.84,0,0,0-2.6-.05.29.29,0,1,0,.28.5,2.25,2.25,0,0,1,2.06.06A.4.4,0,0,0,109.43,322.11Z" style="fill:#263238"></path><path d="M103.19,326.31l1.06-.59S103.87,326.74,103.19,326.31Z" style="fill:#263238"></path><path d="M80.2,407.46l-4.59.34,2.7,2.93s4.48-.73,4.29-2.61Z" style="fill:#ffb573"></path><path d="M94.89,358.37c-.29,4.32-.76,8.56-1.34,12.83-.27,2.14-.64,4.27-1,6.41s-.8,4.26-1.37,6.48c-1.14,4.26-2.5,8.29-3.92,12.34l-2.21,6c-.78,2-1.54,4-2.37,6a1.74,1.74,0,0,1-3.31-1.05h0c.45-2.08,1-4.14,1.44-6.22L82.28,395c1-4.11,2-8.24,2.82-12.26s1.15-8.16,1.61-12.31l1.2-12.56v0a3.5,3.5,0,0,1,7,.57Z" style="fill:#ffb573"></path><path d="M89.54,350.58c-2,1.66-5.49,12.9-5.49,12.9l10.44,5.95s2.08-6.72,1.65-10S92.19,348.34,89.54,350.58Z" style="fill:#99D9BD"></path><polygon points="71.95 409.87 74.42 412.21 78.31 410.73 75.61 407.8 71.95 409.87" style="fill:#ffb573"></polygon><path d="M140.06,371.71a.36.36,0,0,1-.27-.11.38.38,0,0,1,0-.54l25.92-27a.39.39,0,1,1,.56.54l-25.93,27A.36.36,0,0,1,140.06,371.71Z" style="fill:#263238"></path><path d="M141.75,365.79c1.51-2,4.09-1,6.07-.8.33,0,.4.54.16.78a3.21,3.21,0,0,1-2.35.38,4.54,4.54,0,0,1-4.17,2.07A2.8,2.8,0,0,1,141.75,365.79Z" style="fill:#ffb573"></path><rect x="160.04" y="344.31" width="4.9" height="7.88" rx="2.02" transform="translate(317.21 -3.52) rotate(48.76)" style="fill:#99D9BD"></rect></g><g id="freepik--character-2--inject-4"><path d="M324.78,201.58h39.06c1.67,0,3,3.25,3,7.25s-1.36,7.24-3,7.24H324.78c-1.66,0-3-3.24-3-7.24S323.12,201.58,324.78,201.58Z" style="fill:#99D9BD"></path><ellipse cx="363.84" cy="208.83" rx="3.02" ry="7.25" style="fill:#fff;opacity:0.5"></ellipse><rect x="314.25" y="211.6" width="53.12" height="79.07" rx="12" style="fill:#99D9BD"></rect><rect x="314.25" y="211.6" width="53.12" height="79.07" rx="12" style="opacity:0.30000000000000004"></rect><path d="M355.07,211.6v79.07a12.33,12.33,0,0,0,12.3-12.3V223.9A12.34,12.34,0,0,0,355.07,211.6Z" style="opacity:0.30000000000000004"></path><path d="M349.77,195.35c-.4,1.15-7.8-.42-16.51-3.51s-15.44-6.53-15-7.68,7.8.42,16.51,3.51S350.18,194.19,349.77,195.35Z" style="fill:#99D9BD"></path><path d="M322.25,230.65c-1.22,2.12-2.52,4.45-3.74,6.7s-2.41,4.56-3.54,6.87q-.84,1.72-1.62,3.48c-.27.57-.51,1.16-.76,1.74a17.56,17.56,0,0,1-.78,1.68c-.27.49-.51,1-.67,1.27,0,0-.06.06-.09-.07l-.09-.46a5.5,5.5,0,0,0-.18-.56,4.19,4.19,0,0,0-.24-.47,3.86,3.86,0,0,0-.44-.58,3.54,3.54,0,0,0-1.65-1,3.49,3.49,0,0,0-.81-.11,3.42,3.42,0,0,0-.59,0,2.16,2.16,0,0,0-.93.35c-.23.17-.19.21-.15.22a4.56,4.56,0,0,0,1.31-.71c.51-.33,1.06-.73,1.6-1.06l.21-.12a2.49,2.49,0,0,1,3.67,2.87,15.67,15.67,0,0,1-.83,2.13,8.86,8.86,0,0,1-1.44,2.22,4.41,4.41,0,0,1-1,.81,3.79,3.79,0,0,1-1.4.52,3.84,3.84,0,0,1-.71.06,3.95,3.95,0,0,1-3.31-1.93,4.58,4.58,0,0,1-.29-.59,5.31,5.31,0,0,1-.25-.8,6.71,6.71,0,0,1-.12-.95c0-.47,0-.78,0-1.08a22.3,22.3,0,0,1,.35-2.6c.07-.38.16-.74.24-1.1l.32-1q.31-1,.66-2c.46-1.33,1-2.63,1.49-3.93q1.56-3.89,3.45-7.59a82.27,82.27,0,0,1,4.13-7.31,4.8,4.8,0,0,1,8.21,5Z" style="fill:#ff8b7b"></path><path d="M318.73,217.45c-5.51,2.65-9.73,13.63-9.73,13.63L319.75,243s3-5.93,6.06-13.24C329.12,221.76,325.41,214.24,318.73,217.45Z" style="fill:#263238"></path><path d="M350.41,219.64c-9-2.68-18.3-4.27-28.21-3.4a9.74,9.74,0,0,0-8.7,8.25c-1.37,8.72-2.95,25.31-.94,49.34l33.86.54C346.84,269.21,344.5,243.68,350.41,219.64Z" style="fill:#263238"></path><path d="M311.86,264.69a1.54,1.54,0,0,1-1.45-1,38.1,38.1,0,0,1-1.35-13.77c1.24-18,8.25-30.06,11.2-34.42a1.54,1.54,0,1,1,2.55,1.73c-2.81,4.15-9.49,15.67-10.68,32.9a35.66,35.66,0,0,0,1.19,12.57,1.55,1.55,0,0,1-1,1.95A1.69,1.69,0,0,1,311.86,264.69Z" style="fill:#99D9BD"></path><path d="M305.45,249.49l3.8-4.11,3.9,6.06s-2.45,3.73-6.15,1.44Z" style="fill:#ff8b7b"></path><path d="M314.55,245.11l1,3.16a1.25,1.25,0,0,1-.27,1.33l-2.1,1.84-3.9-6.06,3.54-1.43C313.44,243.69,314.28,244.25,314.55,245.11Z" style="fill:#ff8b7b"></path><path d="M343.59,230c-.52,2.33.58,12.94,3.11,15.56.2-3.4.51-6.95.95-10.57Z" style="opacity:0.2"></path><path d="M338.28,201.09c-1.07,4.56-2.29,12.95.84,16.27-2.61,2.31-6,4.95-11.51,4.74s-4.41-3.92-2.88-5.8c5.21-.85,5.21-4.68,4.44-8.34Z" style="fill:#ff8b7b"></path><path d="M334.57,203.9,329.18,208a15.51,15.51,0,0,1,.35,2.58c2-.14,4.77-2.1,5.06-4.14A7,7,0,0,0,334.57,203.9Z" style="opacity:0.2"></path><path d="M339.82,194.18c-.8,6.23-.94,9.92-4.31,12.89-5.07,4.48-12.61,1-13.7-5.32-1-5.72.49-14.94,6.78-17A8.65,8.65,0,0,1,339.82,194.18Z" style="fill:#ff8b7b"></path><path d="M342.9,190.09c.6-4.75-12.86-10.32-16.4-7.33s-1.59,4.16-5.51,5.24c2.86,2.48,13.7,3.09,16.78.74-3.77,2-.42,3.85-2.78,8.78-.42.89.87,1.74,1.76,2.15l1.61.75-1,5.54s7.45.24,6.23-6.44C345,195.6,345.12,192.69,342.9,190.09Z" style="fill:#263238"></path><path d="M323.32,186.22s16.09,3.95,21.47,7.94c1.51-7-.48-7.86-.48-7.86s-8.1-8.49-15.13-7.81C326.53,179.49,323.32,186.22,323.32,186.22Z" style="fill:#99D9BD"></path><path d="M341.77,200.07a5.9,5.9,0,0,1-3.11,3c-1.76.67-2.64-1.07-2.15-3,.44-1.73,1.89-4.15,3.65-4S342.58,198.34,341.77,200.07Z" style="fill:#ff8b7b"></path><path d="M325.49,308.17c-3-3-10.72-2.12-11.54-.63s-.28,15.72.88,17c2.35,2.5,10.61,3.08,11.3.58S328,310.75,325.49,308.17Z" style="fill:#263238"></path><path d="M325.49,308.17c-3-3-10.72-2.12-11.54-.63s-.28,15.72.88,17c2.35,2.5,10.61,3.08,11.3.58S328,310.75,325.49,308.17Z" style="fill:#fff;opacity:0.1"></path><path d="M332.19,336.67c-.26-31.84,6.79-62.42,6.79-62.42l-26.4-.42s3,46,4.09,65.24c1.09,20,2.24,65.68,2.24,65.68H331S333.67,361.79,332.19,336.67Z" style="fill:#263238"></path><path d="M333.24,291.77c-7.53,10.3-4.14,29.68-1.06,43.37A293.47,293.47,0,0,1,336,290.07Z" style="opacity:0.2"></path><path d="M329.4,422.53H310.53a.61.61,0,0,1-.61-.72l.19-1.06a.84.84,0,0,1,.81-.67H329a.86.86,0,0,1,.82.67l.18,1.06A.59.59,0,0,1,329.4,422.53Z" style="fill:#263238"></path><path d="M329.21,414.05l.6,5.64a1,1,0,0,1-1,1.11c-1.79,0-2.61-.28-5.74-.33-3.66-.06-6.76.4-11,.33-2.59,0-2.49-3.87-.49-4.41a32.18,32.18,0,0,0,9-3.87c-.3-2-.6-8-.6-8l10-.23A93.71,93.71,0,0,0,329.21,414.05Z" style="fill:#99D9BD"></path><path d="M329.21,414.05l.6,5.64a1,1,0,0,1-1,1.11c-1.79,0-2.61-.28-5.74-.33-3.66-.06-6.76.4-11,.33-2.59,0-2.49-3.87-.49-4.41a32.18,32.18,0,0,0,9-3.87c-.3-2-.6-8-.6-8l10-.23A93.71,93.71,0,0,0,329.21,414.05Z" style="fill:#fff;opacity:0.4"></path><path d="M364.94,422.53H346.06a.69.69,0,0,1-.69-.72l0-1.06a.73.73,0,0,1,.73-.67h18.08a1,1,0,0,1,.9.67l.32,1.06A.52.52,0,0,1,364.94,422.53Z" style="fill:#263238"></path><path d="M363.64,414.05l1.34,5.64a.9.9,0,0,1-.9,1.11c-1.79,0-2.65-.28-5.78-.33-3.67-.06-6.71.4-11,.33-2.6,0-3-3.87-1.06-4.41a27.68,27.68,0,0,0,8.52-3.87c-.56-2-1.64-8-1.64-8l10-.23A96.36,96.36,0,0,0,363.64,414.05Z" style="fill:#99D9BD"></path><path d="M363.64,414.05l1.34,5.64a.9.9,0,0,1-.9,1.11c-1.79,0-2.65-.28-5.78-.33-3.67-.06-6.71.4-11,.33-2.6,0-3-3.87-1.06-4.41a27.68,27.68,0,0,0,8.52-3.87c-.56-2-1.64-8-1.64-8l10-.23A96.36,96.36,0,0,0,363.64,414.05Z" style="fill:#fff;opacity:0.4"></path><polygon points="318.64 406.34 331.38 406.54 332.1 402.41 317.89 401.97 318.64 406.34" style="fill:#263238"></polygon><path d="M330.76,195c0,.51-.33.9-.67.88s-.57-.46-.54-1,.33-.9.66-.87S330.79,194.5,330.76,195Z" style="fill:#263238"></path><path d="M324.47,194.41c0,.51-.33.9-.66.88s-.58-.46-.54-1,.33-.9.66-.87S324.51,193.9,324.47,194.41Z" style="fill:#263238"></path><path d="M325.48,199.87v2s2.06,1.81,5.82.08C330.31,199,326.87,199.34,325.48,199.87Z" style="fill:#263238"></path><path d="M325.48,199.87v2s-1.71,1.81-4.84.08C321.46,199,324.33,199.34,325.48,199.87Z" style="fill:#263238"></path><path d="M326.27,195.19a18,18,0,0,1-2.72,4.17,2.94,2.94,0,0,0,2.4.64Z" style="fill:#ff5652"></path><path d="M325.78,203.91a4.16,4.16,0,0,0,3.26-.63.15.15,0,1,0-.18-.24,4,4,0,0,1-3.63.41.15.15,0,0,0-.19.09.16.16,0,0,0,.1.19A4.12,4.12,0,0,0,325.78,203.91Z" style="fill:#263238"></path><path d="M332.68,193.52a.23.23,0,0,0,.14,0,.31.31,0,0,0,.09-.42,3,3,0,0,0-2.36-1.41.3.3,0,0,0-.3.3.31.31,0,0,0,.3.3h0a2.41,2.41,0,0,1,1.86,1.14A.29.29,0,0,0,332.68,193.52Z" style="fill:#263238"></path><path d="M322.08,191.41a.31.31,0,0,0,.27-.07,2.37,2.37,0,0,1,2.07-.61.3.3,0,0,0,.36-.22.28.28,0,0,0-.21-.36,2.92,2.92,0,0,0-2.62.75.3.3,0,0,0,0,.42A.24.24,0,0,0,322.08,191.41Z" style="fill:#263238"></path><path d="M354.26,335.87c-3.6-28.46-3.85-47.47-7.84-61.5L324,274s11.48,45,15.85,63.95c4.54,19.7,12.45,66.28,12.45,66.28l11.79.14S361,357.88,354.26,335.87Z" style="fill:#263238"></path><path d="M340.39,308.17c2.41-3,10.34-2.12,11.43-.63s3.11,15.72,2.17,17c-1.89,2.5-10.06,3.08-11.19.58S338.33,310.75,340.39,308.17Z" style="fill:#263238"></path><path d="M340.39,308.17c2.41-3,10.34-2.12,11.43-.63s3.11,15.72,2.17,17c-1.89,2.5-10.06,3.08-11.19.58S338.33,310.75,340.39,308.17Z" style="fill:#fff;opacity:0.1"></path><polygon points="351.64 406.34 364.38 406.54 365.1 402.41 350.89 401.97 351.64 406.34" style="fill:#263238"></polygon><path d="M352.35,223.77c.93,2.08,1.67,4,2.42,6.1s1.41,4.1,2.05,6.17a82.13,82.13,0,0,1,2.82,13l.19,1.69.11,1.74.05.91a9.52,9.52,0,0,1-.08,1.55,7.57,7.57,0,0,1-.56,1.93,6.16,6.16,0,0,1-1.46,2,6.43,6.43,0,0,1-3.8,1.61,9.24,9.24,0,0,1-2.62-.15,17.4,17.4,0,0,1-3.75-1.2,47.83,47.83,0,0,1-11.19-7.31,2.39,2.39,0,0,1,2.48-4l.11,0A85.8,85.8,0,0,0,350.24,252a11.79,11.79,0,0,0,2.32.38c.3,0,.53,0,.52-.07s-.41,0-.95.42a2.15,2.15,0,0,0-.57.72c-.11.2-.14.38-.17.41s0,0,0,0l-.1-.66-.19-1.39-.26-1.41c-.17-.93-.41-1.9-.61-2.84s-.47-1.91-.76-2.87c-.52-1.91-1.12-3.83-1.75-5.74s-1.31-3.82-2-5.73-1.45-3.83-2.15-5.61l0-.08a4.8,4.8,0,0,1,8.84-3.72Z" style="fill:#ff8b7b"></path><path d="M350.41,219.64c5.84,1.81,8.42,12.33,8.42,12.33l-11.18,11.48s-2.8-6-5.57-13.45C339.07,221.92,343.32,217.44,350.41,219.64Z" style="fill:#263238"></path><path d="M346,266.48a15,15,0,0,1-10.11-3.87c-3-2.9-4.45-7.16-4.31-12.66a60,60,0,0,1,10.63-33,1.54,1.54,0,1,1,2.55,1.72A57,57,0,0,0,334.64,250c-.12,4.59,1,8.07,3.35,10.34a12.11,12.11,0,0,0,8.27,3,1.54,1.54,0,0,1,.19,3.07Z" style="fill:#99D9BD"></path><path d="M340.36,248.27l-5.63-3.05-1.63,7.51s5.44,2.14,7-.56Z" style="fill:#ff8b7b"></path><path d="M328.33,247.06l-.12,2.73a2.21,2.21,0,0,0,1.75,2.27l3.14.67,1.63-7.51-4-.27A2.22,2.22,0,0,0,328.33,247.06Z" style="fill:#ff8b7b"></path></g></svg>