<svg xmlns="http://www.w3.org/2000/svg" viewBox="0 0 500 500"><g id="freepik--background-simple--inject-171"><path d="M93.41,98.55c27.92-59.45,127.06-51.06,165.32-9.26s50.7,68.6,85.21,53,78.52-11.44,81,38.17S387.07,288.7,322.89,306.05s-64.16,78.76-149.1,66.37c-46.31-6.75-47.36-56.86-40.82-98.3S61,167.49,93.41,98.55Z" style="fill:#99D9BD"></path><path d="M93.41,98.55c27.92-59.45,127.06-51.06,165.32-9.26s50.7,68.6,85.21,53,78.52-11.44,81,38.17S387.07,288.7,322.89,306.05s-64.16,78.76-149.1,66.37c-46.31-6.75-47.36-56.86-40.82-98.3S61,167.49,93.41,98.55Z" style="fill:#fff;opacity:0.9"></path></g><g id="freepik--Shadow--inject-171"><ellipse id="freepik--path--inject-171" cx="250" cy="416.24" rx="193.89" ry="11.32" style="fill:#f5f5f5"></ellipse></g><g id="freepik--Moon--inject-171"><circle cx="375.12" cy="141.23" r="35.31" style="fill:#99D9BD"></circle><path d="M410.43,141.23a35.3,35.3,0,1,1-7.79-22.13s0,0,0,0A35.11,35.11,0,0,1,410.43,141.23Z" style="fill:#fff;opacity:0.30000000000000004;isolation:isolate"></path><path d="M405.12,128.85a1.51,1.51,0,0,1-.4-3,35,35,0,0,0-2.08-6.77s0,0,0,0a35.1,35.1,0,0,0-3.79-4,3.93,3.93,0,0,1-5.85-3.45,3.59,3.59,0,0,1,.08-.81,35.31,35.31,0,0,0-49.73,15,3.07,3.07,0,0,1,.19,1.06,3.16,3.16,0,0,1-1.8,2.85,35.4,35.4,0,0,0,.85,25.28,35.33,35.33,0,0,0,20.63,12.48,2.28,2.28,0,0,1,4.51.43c0,.06,0,.11,0,.17.79,0,1.59.09,2.39.09a35.18,35.18,0,0,0,11.48-1.92,2.56,2.56,0,0,1,2.51-2.05,2.59,2.59,0,0,1,1.43.43,35.41,35.41,0,0,0,8.65-5.95,3.35,3.35,0,1,1,4.45-5,35.25,35.25,0,0,0,6.56-24.82Zm-62.47,15.82a.89.89,0,1,1,.89-.89A.89.89,0,0,1,342.65,144.67Zm3.44,6.13a1.36,1.36,0,1,1,1.36-1.36A1.36,1.36,0,0,1,346.09,150.8ZM349,139.13a.5.5,0,1,1,.5-.49A.49.49,0,0,1,349,139.13Zm13.4-29.27a1.93,1.93,0,1,1-1.92,1.92A1.93,1.93,0,0,1,362.38,109.86ZM354.32,159a.89.89,0,1,1,.9-.89A.89.89,0,0,1,354.32,159Zm-.89-31.75a1.78,1.78,0,1,1,1.79-1.78A1.78,1.78,0,0,1,353.43,127.26Zm5.54,34.9a.59.59,0,1,1,.6-.59A.59.59,0,0,1,359,162.16Zm1.49-17.49a.89.89,0,1,1,.89-.89A.89.89,0,0,1,360.46,144.67Zm2.72,12.56A1.83,1.83,0,1,1,365,155.4,1.83,1.83,0,0,1,363.18,157.23Zm4.55-7.91a1.24,1.24,0,1,1,1.23-1.24A1.23,1.23,0,0,1,367.73,149.32Zm1.78,9.69a.55.55,0,0,1-.55-.54.55.55,0,0,1,.55-.55.55.55,0,0,1,.54.55A.54.54,0,0,1,369.51,159ZM382,107.68a.45.45,0,1,1-.45.45A.45.45,0,0,1,382,107.68Zm-7.25,5.14a.89.89,0,1,1-.88.89A.88.88,0,0,1,374.72,112.82Zm-.44,52.26a.44.44,0,0,1-.44-.44.44.44,0,0,1,.44-.44.43.43,0,0,1,.44.44A.44.44,0,0,1,374.28,165.08Zm.37-30.79a1.83,1.83,0,1,1,1.83-1.83A1.83,1.83,0,0,1,374.65,134.29Zm3.91,7.71a.89.89,0,1,1,.89.89A.89.89,0,0,1,378.56,142Zm3,15.92a2.18,2.18,0,1,1,2.18-2.17A2.17,2.17,0,0,1,381.52,157.92Zm5.84-1.78a.69.69,0,1,1,.69-.69A.69.69,0,0,1,387.36,156.14Zm.34-24a.35.35,0,1,1,.35-.35A.34.34,0,0,1,387.7,132.11Zm1.83-11.37a1.29,1.29,0,1,1,1.29-1.29A1.28,1.28,0,0,1,389.53,120.74Zm2.38,27.1a1.09,1.09,0,1,1,1.09-1.09A1.09,1.09,0,0,1,391.91,147.84Zm8-6.73a1,1,0,1,1,1-1A1,1,0,0,1,399.92,141.11Z" style="fill:#fff;opacity:0.30000000000000004;isolation:isolate"></path></g><g id="freepik--Tree--inject-171"><path d="M202.65,215.05a7.66,7.66,0,0,0-4.32-1.31c-.89-1.19,0-2.87.93-4s2.14-2.39,1.87-3.85c-.42-2.2-3.45-2.42-5.66-2.11-.75-1.35-.66-3-1-4.5s-1.43-3.13-3-3-2.41,1.69-3.84,2c-1.66.31-3-1.21-4.25-2.36a4.74,4.74,0,0,0-.49-.4h0c.49-4.49,4.75-3.57,8.44-4,2.88-.34-4.34-7.93,1.54-10a5,5,0,0,0,2.87-1.8,3.26,3.26,0,0,0-1.06-4,7.64,7.64,0,0,0-4.32-1.31c-.88-1.19,0-2.87.93-4s2.15-2.39,1.87-3.85c-.41-2.2-3.45-2.42-5.66-2.11-.75-1.35-.65-3-1-4.5s-1.43-3.13-3-3-2.41,1.69-3.84,2c-1.66.31-3-1.21-4.25-2.36s-3.45-1.94-4.41-.55c-.58.83-.32,2-.91,2.86-1,1.43-3.25.4-4.61-.7s-3.56-2.16-4.62-.77a5.87,5.87,0,0,0-.62,1.48,3.71,3.71,0,0,1-.62,1c-.23-1-.26-2.1-.48-3.13-.32-1.51-1.43-3.14-3-3s-2.41,1.7-3.84,2c-1.66.31-3-1.21-4.25-2.37s-3.46-1.94-4.41-.55c-.58.84-.32,2-.91,2.87a1.7,1.7,0,0,1-.48.45,14.51,14.51,0,0,0-1.46-.17c-.88-1.19,0-2.87.93-4s2.15-2.4,1.87-3.85c-.41-2.2-3.45-2.43-5.66-2.11-.75-1.35-.65-3-1-4.5s-1.43-3.14-3-3-2.42,1.7-3.85,2c-1.66.31-3-1.21-4.25-2.37s-3.45-1.94-4.41-.55c-.57.84-.31,2-.91,2.87-1,1.42-3.25.4-4.61-.71s-3.56-2.16-4.62-.76a5.87,5.87,0,0,0-.62,1.48c-.76,1.89-2.89,2.75-4.57,3.9s-3.08,3.55-1.78,5.12c.64.78,1.81,1.14,2.11,2.1.36,1.2-.9,2.2-1.9,3a5,5,0,0,0-1.2,5.1,4.08,4.08,0,0,1-1.71.89c-1.66.31-3-1.21-4.25-2.36s-3.46-2-4.41-.55c-.58.83-.32,2-.91,2.86-1,1.42-3.25.4-4.61-.7s-3.56-2.16-4.62-.77a5.87,5.87,0,0,0-.62,1.48c-.76,1.89-2.89,2.75-4.57,3.91s-3.08,3.54-1.78,5.12c.61.74,1.71,1.11,2,2-1.11-.51-2.34-.58-3,.37s-.31,2.05-.9,2.87c-1,1.42-3.26.4-4.62-.71S66,171.64,64.94,173a6.26,6.26,0,0,0-.62,1.48c-.76,1.89-2.88,2.75-4.56,3.91S56.68,182,58,183.54c.64.77,1.82,1.13,2.11,2.09.36,1.21-.9,2.21-1.9,3-1.65,1.27-2.14,5.31-.09,6.52.86.51,2.15.72,2.32,1.7S59.65,198.35,59,199a4.18,4.18,0,0,0,1,6.29c.5.27,1.11.5,1.27,1a1.92,1.92,0,0,1-.18,1.17,6.38,6.38,0,0,0-.31,2.25,1,1,0,0,0,.24.72,1.07,1.07,0,0,0,.66.22c3,.29,4.55-.72,6.28,2a2.13,2.13,0,0,0,.6.7,2,2,0,0,0,.83.25c2.08.27,3.51-1,5.43-1.12,2.67-.21,3.16,1.19,5.44,2.4,3.59,1.9,5.42.93,6.23-1.54a10.69,10.69,0,0,0,.44-2.16,3.78,3.78,0,0,1,1.41-2.82l.06,0c1.94.25,3.32-.8,5.06-1.06l1.08-.06c2.06.07,2.68,1.3,4.74,2.4a7.4,7.4,0,0,0,3.1,1c.24,1.15-.95,2.11-1.91,2.85-1.66,1.28-2.15,5.32-.1,6.53.86.51,2.15.71,2.32,1.7s-.76,1.51-1.38,2.16a4.18,4.18,0,0,0,1,6.29c.5.26,1.11.49,1.27,1a1.92,1.92,0,0,1-.18,1.17,6.35,6.35,0,0,0-.31,2.25,1,1,0,0,0,.24.72,1.07,1.07,0,0,0,.66.22c3,.28,4.55-.72,6.28,2a2.17,2.17,0,0,0,.6.71,2,2,0,0,0,.83.24c2.08.28,3.51-1,5.43-1.11,2.67-.21,3.16,1.18,5.44,2.39,3.59,1.91,5.42.93,6.23-1.54a10.45,10.45,0,0,0,.44-2.15c.48-4.49,4.75-3.57,8.44-4a.74.74,0,0,0,.62-.39l.22,0c2.09.27,3.51-1,5.44-1.12,2.66-.21,3.16,1.19,5.44,2.4,3.59,1.9,5.42.92,6.23-1.54a10.07,10.07,0,0,0,.43-2.16c.38-3.49,3-3.71,5.94-3.84a4.05,4.05,0,0,0,2,3.38c.49.27,1.1.5,1.26,1a2,2,0,0,1-.17,1.17,6.17,6.17,0,0,0-.32,2.25,1,1,0,0,0,.24.72,1.09,1.09,0,0,0,.66.22c3,.28,4.55-.72,6.28,2a2.26,2.26,0,0,0,.6.7,2,2,0,0,0,.83.25c2.08.27,3.51-1,5.43-1.12,2.67-.21,3.16,1.19,5.44,2.4,3.59,1.9,5.42.93,6.23-1.54a10.69,10.69,0,0,0,.44-2.16c.48-4.49,4.75-3.57,8.44-4,2.88-.34-4.34-7.93,1.54-10a5.07,5.07,0,0,0,2.87-1.8A3.27,3.27,0,0,0,202.65,215.05Zm-38.9,4.59a1.29,1.29,0,0,1,.59.85,1.2,1.2,0,0,1-.15.79A12,12,0,0,1,163.75,219.64Zm-37.56-39.38a5.85,5.85,0,0,1-2.9-1.82A17.06,17.06,0,0,1,126.19,180.26ZM155.88,191a3.46,3.46,0,0,1,.69-1.21,1.39,1.39,0,0,1,.72.73.8.8,0,0,1,0,.31,1.82,1.82,0,0,0-.62-.06A2.34,2.34,0,0,0,155.88,191Zm4,3.93c1.71,0,2.86,0,4.12,2a2.26,2.26,0,0,0,.6.7,2,2,0,0,0,.83.25,6.54,6.54,0,0,0,3.15-.53c-.1.28-.18.57-.29.84a5.23,5.23,0,0,1-2,2.24h0c-.41-2.2-3.45-2.42-5.66-2.11A9.09,9.09,0,0,1,159.85,194.94Zm13.65,2.52c-.2-.16-.4-.31-.62-.46a13.33,13.33,0,0,1,2.44,1.56A7.36,7.36,0,0,1,173.5,197.46Z" style="fill:#263238"></path><path d="M93.08,254.86a6.11,6.11,0,0,0-3.4-1c-.7-.94,0-2.26.73-3.15s1.69-1.88,1.47-3c-.32-1.73-2.71-1.91-4.45-1.66-.59-1.06-.52-2.36-.77-3.55s-1.13-2.46-2.34-2.37-1.9,1.33-3,1.54c-1.3.24-2.37-1-3.34-1.87s-2.72-1.53-3.48-.43c-.45.66-.24,1.61-.71,2.26-.81,1.12-2.56.31-3.63-.56s-2.81-1.7-3.64-.6a4.6,4.6,0,0,0-.49,1.16c-.6,1.49-2.27,2.17-3.59,3.08s-2.43,2.79-1.41,4c.5.61,1.43.89,1.66,1.65.28.95-.71,1.74-1.49,2.34-1.31,1-1.69,4.18-.08,5.14.68.4,1.7.56,1.83,1.34s-.6,1.19-1.09,1.7a3.3,3.3,0,0,0,.77,4.95c.39.21.87.39,1,.81a1.56,1.56,0,0,1-.14.92,4.87,4.87,0,0,0-.25,1.77.81.81,0,0,0,.19.57.79.79,0,0,0,.52.17c2.39.23,3.58-.56,4.94,1.59a1.59,1.59,0,0,0,.48.55,1.46,1.46,0,0,0,.65.2c1.64.22,2.76-.76,4.27-.88,2.1-.16,2.49.93,4.29,1.89,2.83,1.5,4.27.73,4.91-1.22a8.55,8.55,0,0,0,.34-1.69c.38-3.54,3.74-2.81,6.64-3.15,2.27-.27-3.41-6.24,1.21-7.86a4,4,0,0,0,2.27-1.42A2.58,2.58,0,0,0,93.08,254.86Z" style="fill:#263238"></path><g style="opacity:0.30000000000000004;isolation:isolate"><path d="M202.65,215.05a7.66,7.66,0,0,0-4.32-1.31c-.89-1.19,0-2.87.93-4s2.14-2.39,1.87-3.85c-.42-2.2-3.45-2.42-5.66-2.11-.75-1.35-.66-3-1-4.5s-1.43-3.13-3-3-2.41,1.69-3.84,2c-1.66.31-3-1.21-4.25-2.36a4.74,4.74,0,0,0-.49-.4h0c.49-4.49,4.75-3.57,8.44-4,2.88-.34-4.34-7.93,1.54-10a5,5,0,0,0,2.87-1.8,3.26,3.26,0,0,0-1.06-4,7.64,7.64,0,0,0-4.32-1.31c-.88-1.19,0-2.87.93-4s2.15-2.39,1.87-3.85c-.41-2.2-3.45-2.42-5.66-2.11-.75-1.35-.65-3-1-4.5s-1.43-3.13-3-3-2.41,1.69-3.84,2c-1.66.31-3-1.21-4.25-2.36s-3.45-1.94-4.41-.55c-.58.83-.32,2-.91,2.86-1,1.43-3.25.4-4.61-.7s-3.56-2.16-4.62-.77a5.87,5.87,0,0,0-.62,1.48,3.71,3.71,0,0,1-.62,1c-.23-1-.26-2.1-.48-3.13-.32-1.51-1.43-3.14-3-3s-2.41,1.7-3.84,2c-1.66.31-3-1.21-4.25-2.37s-3.46-1.94-4.41-.55c-.58.84-.32,2-.91,2.87a1.7,1.7,0,0,1-.48.45,14.51,14.51,0,0,0-1.46-.17c-.88-1.19,0-2.87.93-4s2.15-2.4,1.87-3.85c-.41-2.2-3.45-2.43-5.66-2.11-.75-1.35-.65-3-1-4.5s-1.43-3.14-3-3-2.42,1.7-3.85,2c-1.66.31-3-1.21-4.25-2.37s-3.45-1.94-4.41-.55c-.57.84-.31,2-.91,2.87-1,1.42-3.25.4-4.61-.71s-3.56-2.16-4.62-.76a5.87,5.87,0,0,0-.62,1.48c-.76,1.89-2.89,2.75-4.57,3.9s-3.08,3.55-1.78,5.12c.64.78,1.81,1.14,2.11,2.1.36,1.2-.9,2.2-1.9,3a5,5,0,0,0-1.2,5.1,4.08,4.08,0,0,1-1.71.89c-1.66.31-3-1.21-4.25-2.36s-3.46-2-4.41-.55c-.58.83-.32,2-.91,2.86-1,1.42-3.25.4-4.61-.7s-3.56-2.16-4.62-.77a5.87,5.87,0,0,0-.62,1.48c-.76,1.89-2.89,2.75-4.57,3.91s-3.08,3.54-1.78,5.12c.61.74,1.71,1.11,2,2-1.11-.51-2.34-.58-3,.37s-.31,2.05-.9,2.87c-1,1.42-3.26.4-4.62-.71S66,171.64,64.94,173a6.26,6.26,0,0,0-.62,1.48c-.76,1.89-2.88,2.75-4.56,3.91S56.68,182,58,183.54c.64.77,1.82,1.13,2.11,2.09.36,1.21-.9,2.21-1.9,3-1.65,1.27-2.14,5.31-.09,6.52.86.51,2.15.72,2.32,1.7S59.65,198.35,59,199a4.18,4.18,0,0,0,1,6.29c.5.27,1.11.5,1.27,1a1.92,1.92,0,0,1-.18,1.17,6.38,6.38,0,0,0-.31,2.25,1,1,0,0,0,.24.72,1.07,1.07,0,0,0,.66.22c3,.29,4.55-.72,6.28,2a2.13,2.13,0,0,0,.6.7,2,2,0,0,0,.83.25c2.08.27,3.51-1,5.43-1.12,2.67-.21,3.16,1.19,5.44,2.4,3.59,1.9,5.42.93,6.23-1.54a10.69,10.69,0,0,0,.44-2.16,3.78,3.78,0,0,1,1.41-2.82l.06,0c1.94.25,3.32-.8,5.06-1.06l1.08-.06c2.06.07,2.68,1.3,4.74,2.4a7.4,7.4,0,0,0,3.1,1c.24,1.15-.95,2.11-1.91,2.85-1.66,1.28-2.15,5.32-.1,6.53.86.51,2.15.71,2.32,1.7s-.76,1.51-1.38,2.16a4.18,4.18,0,0,0,1,6.29c.5.26,1.11.49,1.27,1a1.92,1.92,0,0,1-.18,1.17,6.35,6.35,0,0,0-.31,2.25,1,1,0,0,0,.24.72,1.07,1.07,0,0,0,.66.22c3,.28,4.55-.72,6.28,2a2.17,2.17,0,0,0,.6.71,2,2,0,0,0,.83.24c2.08.28,3.51-1,5.43-1.11,2.67-.21,3.16,1.18,5.44,2.39,3.59,1.91,5.42.93,6.23-1.54a10.45,10.45,0,0,0,.44-2.15c.48-4.49,4.75-3.57,8.44-4a.74.74,0,0,0,.62-.39l.22,0c2.09.27,3.51-1,5.44-1.12,2.66-.21,3.16,1.19,5.44,2.4,3.59,1.9,5.42.92,6.23-1.54a10.07,10.07,0,0,0,.43-2.16c.38-3.49,3-3.71,5.94-3.84a4.05,4.05,0,0,0,2,3.38c.49.27,1.1.5,1.26,1a2,2,0,0,1-.17,1.17,6.17,6.17,0,0,0-.32,2.25,1,1,0,0,0,.24.72,1.09,1.09,0,0,0,.66.22c3,.28,4.55-.72,6.28,2a2.26,2.26,0,0,0,.6.7,2,2,0,0,0,.83.25c2.08.27,3.51-1,5.43-1.12,2.67-.21,3.16,1.19,5.44,2.4,3.59,1.9,5.42.93,6.23-1.54a10.69,10.69,0,0,0,.44-2.16c.48-4.49,4.75-3.57,8.44-4,2.88-.34-4.34-7.93,1.54-10a5.07,5.07,0,0,0,2.87-1.8A3.27,3.27,0,0,0,202.65,215.05Zm-38.9,4.59a1.29,1.29,0,0,1,.59.85,1.2,1.2,0,0,1-.15.79A12,12,0,0,1,163.75,219.64Zm-37.56-39.38a5.85,5.85,0,0,1-2.9-1.82A17.06,17.06,0,0,1,126.19,180.26ZM155.88,191a3.46,3.46,0,0,1,.69-1.21,1.39,1.39,0,0,1,.72.73.8.8,0,0,1,0,.31,1.82,1.82,0,0,0-.62-.06A2.34,2.34,0,0,0,155.88,191Zm4,3.93c1.71,0,2.86,0,4.12,2a2.26,2.26,0,0,0,.6.7,2,2,0,0,0,.83.25,6.54,6.54,0,0,0,3.15-.53c-.1.28-.18.57-.29.84a5.23,5.23,0,0,1-2,2.24h0c-.41-2.2-3.45-2.42-5.66-2.11A9.09,9.09,0,0,1,159.85,194.94Zm13.65,2.52c-.2-.16-.4-.31-.62-.46a13.33,13.33,0,0,1,2.44,1.56A7.36,7.36,0,0,1,173.5,197.46Z" style="fill:#fff"></path><path d="M93.08,254.86a6.11,6.11,0,0,0-3.4-1c-.7-.94,0-2.26.73-3.15s1.69-1.88,1.47-3c-.32-1.73-2.71-1.91-4.45-1.66-.59-1.06-.52-2.36-.77-3.55s-1.13-2.46-2.34-2.37-1.9,1.33-3,1.54c-1.3.24-2.37-1-3.34-1.87s-2.72-1.53-3.48-.43c-.45.66-.24,1.61-.71,2.26-.81,1.12-2.56.31-3.63-.56s-2.81-1.7-3.64-.6a4.6,4.6,0,0,0-.49,1.16c-.6,1.49-2.27,2.17-3.59,3.08s-2.43,2.79-1.41,4c.5.61,1.43.89,1.66,1.65.28.95-.71,1.74-1.49,2.34-1.31,1-1.69,4.18-.08,5.14.68.4,1.7.56,1.83,1.34s-.6,1.19-1.09,1.7a3.3,3.3,0,0,0,.77,4.95c.39.21.87.39,1,.81a1.56,1.56,0,0,1-.14.92,4.87,4.87,0,0,0-.25,1.77.81.81,0,0,0,.19.57.79.79,0,0,0,.52.17c2.39.23,3.58-.56,4.94,1.59a1.59,1.59,0,0,0,.48.55,1.46,1.46,0,0,0,.65.2c1.64.22,2.76-.76,4.27-.88,2.1-.16,2.49.93,4.29,1.89,2.83,1.5,4.27.73,4.91-1.22a8.55,8.55,0,0,0,.34-1.69c.38-3.54,3.74-2.81,6.64-3.15,2.27-.27-3.41-6.24,1.21-7.86a4,4,0,0,0,2.27-1.42A2.58,2.58,0,0,0,93.08,254.86Z" style="fill:#fff"></path></g><path d="M157.78,233.6l5.45-14.72L173,207.52l-1.51-1.38-9.11,9-.82-15L158.1,200s3.73,17.31.43,23.68c0,0-13.69,27.41-20.53,33a5.79,5.79,0,0,0-1,1.12,68.92,68.92,0,0,0-6.91-14.65c2.9-6.49,9.16-20.81,11.42-28.47a152.1,152.1,0,0,0,4.22-18.2l-2.51-1.53s-7.11,29.66-17.81,42.26a39.83,39.83,0,0,0-9.71-7.2c-.61-4.08-.63-11.13,2.59-22l-1.9-1.93s-4.72,10.42-4.91,21.55a37.4,37.4,0,0,1-4.24-2.8c-9.38-7.29-15.6-20-15.6-20l-3.68-.18s9,20.59,20.25,27.23,18,21.79,18.4,25.7c.11,1.11-.2,12.82-.7,29-12.24-8.26-42.32-28.59-43.87-30l-.19,3.74,43.76,35.72c-1.21,37.56-3.1,90.23-3.41,98.69l17.87.87c.77-11.66,5-79.73,1.12-117.24.24-1.12.49-2.4.76-3.89,2.46-14,16.61-34.57,19.4-37.86S172.23,223,172.23,223l-1.46-2.44Z" style="fill:#263238"></path><path d="M157.78,233.6l5.45-14.72L173,207.52l-1.51-1.38-9.11,9-.82-15L158.1,200s3.73,17.31.43,23.68c0,0-13.69,27.41-20.53,33a5.79,5.79,0,0,0-1,1.12,68.92,68.92,0,0,0-6.91-14.65c2.9-6.49,9.16-20.81,11.42-28.47a152.1,152.1,0,0,0,4.22-18.2l-2.51-1.53s-7.11,29.66-17.81,42.26a39.83,39.83,0,0,0-9.71-7.2c-.61-4.08-.63-11.13,2.59-22l-1.9-1.93s-4.72,10.42-4.91,21.55a37.4,37.4,0,0,1-4.24-2.8c-9.38-7.29-15.6-20-15.6-20l-3.68-.18s9,20.59,20.25,27.23,18,21.79,18.4,25.7c.11,1.11-.2,12.82-.7,29-12.24-8.26-42.32-28.59-43.87-30l-.19,3.74,43.76,35.72c-1.21,37.56-3.1,90.23-3.41,98.69l17.87.87c.77-11.66,5-79.73,1.12-117.24.24-1.12.49-2.4.76-3.89,2.46-14,16.61-34.57,19.4-37.86S172.23,223,172.23,223l-1.46-2.44Z" style="fill:#fff;opacity:0.6000000000000001;isolation:isolate"></path><path d="M62.88,398.68h83.05l-4.49-10.83s-1.25-4.19-5.6-4.18-5.42,7-5.42,7-2.36-5.37-6.56-5.82-1.59,6.31-1.59,6.31-9.08-5.18-11.94-2.66a4.38,4.38,0,0,0-.94,5.61s-8.19-.9-12.34,1.83c0,0-.77-3.64-3.31-4.21s-4.57,1.86-4.57,1.86.76-5.52-2.8-7.94-3.81,7.94-3.81,7.94-2.28-4.88-5.46-4.62-1.65,6.38-1.65,6.38A25.51,25.51,0,0,0,62.88,398.68Z" style="fill:#263238"></path><path d="M62.88,398.68h83.05l-4.49-10.83s-1.25-4.19-5.6-4.18-5.42,7-5.42,7-2.36-5.37-6.56-5.82-1.59,6.31-1.59,6.31-9.08-5.18-11.94-2.66a4.38,4.38,0,0,0-.94,5.61s-8.19-.9-12.34,1.83c0,0-.77-3.64-3.31-4.21s-4.57,1.86-4.57,1.86.76-5.52-2.8-7.94-3.81,7.94-3.81,7.94-2.28-4.88-5.46-4.62-1.65,6.38-1.65,6.38A25.51,25.51,0,0,0,62.88,398.68Z" style="fill:#fff;opacity:0.4;isolation:isolate"></path><path d="M143.13,396.05s-6.66-7.37-5.31-8.66,4.19,2.88,4.19,2.88-5.13-9.44-3.28-10.48,5.25,8.13,5.25,8.13-1.8-10.74,0-11.31,2.68,9.72,2.68,9.72,1.23-10.89,3.49-10.73,0,9.68,0,9.68,5-7.24,7.32-6.95-3.64,7.49-3.64,7.49,6-4.34,7.72-3.32-5.36,5.78-5.36,5.78,6.09-2.18,7.66-1.09-6.38,3.43-6.38,3.43,6.48,1,6,1.9-6,.8-6,.8S155.06,399.92,143.13,396.05Z" style="fill:#263238"></path><path d="M143.13,396.05s-6.66-7.37-5.31-8.66,4.19,2.88,4.19,2.88-5.13-9.44-3.28-10.48,5.25,8.13,5.25,8.13-1.8-10.74,0-11.31,2.68,9.72,2.68,9.72,1.23-10.89,3.49-10.73,0,9.68,0,9.68,5-7.24,7.32-6.95-3.64,7.49-3.64,7.49,6-4.34,7.72-3.32-5.36,5.78-5.36,5.78,6.09-2.18,7.66-1.09-6.38,3.43-6.38,3.43,6.48,1,6,1.9-6,.8-6,.8S155.06,399.92,143.13,396.05Z" style="fill:#fff;opacity:0.5;isolation:isolate"></path><circle cx="137.58" cy="371.95" r="0.78" style="fill:#263238"></circle><path d="M146.51,392.54h0a.18.18,0,0,0,.15-.21c0-.16-2.92-15.93-9.84-22.73a.18.18,0,0,0-.26,0,.19.19,0,0,0,0,.26c6.83,6.72,9.71,22.38,9.74,22.53A.18.18,0,0,0,146.51,392.54Z" style="fill:#263238"></path><path d="M135.81,369.72a.92.92,0,1,0,.91-.92A.91.91,0,0,0,135.81,369.72Z" style="fill:#263238"></path><path d="M138.74,377.08a.79.79,0,1,0,.78-.78A.78.78,0,0,0,138.74,377.08Z" style="fill:#263238"></path><path d="M142.21,374.82A.78.78,0,1,0,143,374,.78.78,0,0,0,142.21,374.82Z" style="fill:#263238"></path><circle cx="140.56" cy="379.92" r="0.78" style="fill:#263238"></circle><path d="M143.35,378.8a.78.78,0,1,0,.78-.78A.78.78,0,0,0,143.35,378.8Z" style="fill:#263238"></path><circle cx="140.24" cy="370.63" r="0.78" style="fill:#263238"></circle><path d="M140.43,374.65v-4a.18.18,0,0,0-.19-.18.18.18,0,0,0-.18.18v3.54l-3.29-.81a.19.19,0,0,0-.23.13.2.2,0,0,0,.14.23Z" style="fill:#263238"></path><path d="M142.1,378l1.06-3.13a.18.18,0,0,0-.11-.24.19.19,0,0,0-.24.12l-.95,2.81-2.3-.51a.19.19,0,0,0-.22.14.18.18,0,0,0,.14.22Z" style="fill:#263238"></path><path d="M143.43,381.28l.88-2.42a.19.19,0,0,0-.12-.24.19.19,0,0,0-.23.11l-.75,2.06-2.58-1.05a.19.19,0,0,0-.24.11.18.18,0,0,0,.11.24Z" style="fill:#263238"></path><path d="M155.85,396.65a.19.19,0,0,0,.15-.07c3.66-5.05,8.18-10.56,14-13.15a.18.18,0,0,0,.09-.24.19.19,0,0,0-.24-.1c-5.88,2.62-10.44,8.18-14.12,13.27a.19.19,0,0,0,0,.26A.2.2,0,0,0,155.85,396.65Z" style="fill:#263238"></path><path d="M170.75,383.58a.91.91,0,1,1-.54-1.17A.9.9,0,0,1,170.75,383.58Z" style="fill:#263238"></path><path d="M170.13,387.25a.9.9,0,0,1-1.17.54.91.91,0,1,1,1.17-.54Z" style="fill:#263238"></path><path d="M165.42,389.45a.78.78,0,1,1-.46-1A.78.78,0,0,1,165.42,389.45Z" style="fill:#263238"></path><path d="M163,386.12a.78.78,0,1,1-.46-1A.78.78,0,0,1,163,386.12Z" style="fill:#263238"></path><path d="M163.45,391.74a.78.78,0,1,1-.46-1A.77.77,0,0,1,163.45,391.74Z" style="fill:#263238"></path><path d="M160.5,389.44a.78.78,0,1,1-.45-1A.77.77,0,0,1,160.5,389.44Z" style="fill:#263238"></path><path d="M167,383.16a.78.78,0,0,1-1.47-.55.78.78,0,0,1,1.47.55Z" style="fill:#263238"></path><path d="M168.55,387a.19.19,0,0,0,.19-.17.18.18,0,0,0-.16-.2l-3.37-.39,1.24-3.32a.19.19,0,0,0-.11-.24.2.2,0,0,0-.24.11l-1.41,3.76,3.84.45Z" style="fill:#263238"></path><path d="M164.63,389.51a.19.19,0,0,0,.19-.16.2.2,0,0,0-.16-.21l-2.33-.32.09-3a.18.18,0,0,0-.18-.19.2.2,0,0,0-.19.18l-.1,3.3,2.66.37Z" style="fill:#263238"></path><path d="M159.56,391.74l3.17-.09a.18.18,0,0,0,.18-.19.2.2,0,0,0-.19-.18l-2.79.08,0-2.19a.2.2,0,0,0-.19-.19h0a.19.19,0,0,0-.18.19Z" style="fill:#263238"></path><path d="M170.76,398.69h-41.7s10.55-3.44,10.81-4.42a3.25,3.25,0,0,1,1.54-2.5c1.29-.85,3.05-1.37,3.54-2.3a13.79,13.79,0,0,1,2.53-2.87c.52-.43,6.78,2.71,6.85,2.79s1.82,3.48,2.41,4.24,4.68-.16,5.66.64,4.26,2.9,4.26,2.9S168.28,396.94,170.76,398.69Z" style="fill:#263238"></path><path d="M170.76,398.69h-41.7s10.55-3.44,10.81-4.42a3.25,3.25,0,0,1,1.54-2.5c1.29-.85,3.05-1.37,3.54-2.3a13.79,13.79,0,0,1,2.53-2.87c.52-.43,6.78,2.71,6.85,2.79s1.82,3.48,2.41,4.24,4.68-.16,5.66.64,4.26,2.9,4.26,2.9S168.28,396.94,170.76,398.69Z" style="fill:#fff;opacity:0.1"></path></g><g id="freepik--Plants--inject-171"><path d="M220,398.69c1.33-1.91,4.89-6.69,6.6-5.91,2.77,1.26,4.82-5.66,7.89-4,1.08.58.55,2.43,1.23,3.17,1.12,1.23,2.55,1,3.91,1.67,2.4,1.2,3.41,2.75,4.55,5.09Z" style="fill:#263238"></path><path d="M222.22,397.32s1.65-9.55.51-10.95-1.34,5.21-1.34,5.21-3.81-13.8-6.26-13.87,2.9,12,2.9,12-10.44-17.07-13.47-15.48,10.93,16.72,10.93,16.72-7.64-6.57-9.33-4.72,8.48,7.53,8.48,7.53-4.48-1-4.47.49S217.73,398.16,222.22,397.32Z" style="fill:#263238"></path><path d="M222.22,397.32s1.65-9.55.51-10.95-1.34,5.21-1.34,5.21-3.81-13.8-6.26-13.87,2.9,12,2.9,12-10.44-17.07-13.47-15.48,10.93,16.72,10.93,16.72-7.64-6.57-9.33-4.72,8.48,7.53,8.48,7.53-4.48-1-4.47.49S217.73,398.16,222.22,397.32Z" style="fill:#fff;opacity:0.4;isolation:isolate"></path><path d="M223.73,396s7.84-1.42,8.6-2.69-4.4.44-4.4.44,9.59-6.85,9-8.76-8.44,5.62-8.44,5.62,10.25-12.9,8.16-14.79-9.84,13.17-9.84,13.17,2.93-7.76,1-8.54-3.43,8.68-3.43,8.68-.49-3.75-1.64-3.32S221.8,392.72,223.73,396Z" style="fill:#263238"></path><path d="M223.73,396s7.84-1.42,8.6-2.69-4.4.44-4.4.44,9.59-6.85,9-8.76-8.44,5.62-8.44,5.62,10.25-12.9,8.16-14.79-9.84,13.17-9.84,13.17,2.93-7.76,1-8.54-3.43,8.68-3.43,8.68-.49-3.75-1.64-3.32S221.8,392.72,223.73,396Z" style="fill:#fff;opacity:0.4;isolation:isolate"></path><path d="M224.31,394.91s7.58-7.59,7.45-9.58-4.53,3.86-4.53,3.86,5.34-14.92,3.17-16.55-5,12.69-5,12.69,1.43-22.11-2.33-22.61-.77,22.1-.77,22.1-2.72-10.82-5.43-10.21,2.87,12.22,2.87,12.22-3.41-3.77-4.36-2.41S219.71,392.82,224.31,394.91Z" style="fill:#263238"></path><path d="M224.31,394.91s7.58-7.59,7.45-9.58-4.53,3.86-4.53,3.86,5.34-14.92,3.17-16.55-5,12.69-5,12.69,1.43-22.11-2.33-22.61-.77,22.1-.77,22.1-2.72-10.82-5.43-10.21,2.87,12.22,2.87,12.22-3.41-3.77-4.36-2.41S219.71,392.82,224.31,394.91Z" style="fill:#fff;opacity:0.5;isolation:isolate"></path><path d="M213.81,398.69c1.66-1.66,3.52-3.21,4.36-2.83,2.21,1,3.84-4.51,6.29-3.2.86.46.44,1.94,1,2.53.89,1,2,.79,3.11,1.33a4.53,4.53,0,0,1,2.07,2.17Z" style="fill:#263238"></path><path d="M213.81,398.69c1.66-1.66,3.52-3.21,4.36-2.83,2.21,1,3.84-4.51,6.29-3.2.86.46.44,1.94,1,2.53.89,1,2,.79,3.11,1.33a4.53,4.53,0,0,1,2.07,2.17Z" style="fill:#fff;opacity:0.2"></path><path d="M425.8,391.6s3.8-13.91,6.89-18.32-1.86,10-1.86,10,4.32-9.16,5.67-8.87S432,384.55,432,384.55s4.43-7.92,6.37-6.62-5.65,9.43-5.65,9.43,6.82-5.11,7.49-3.69-6.6,6-6.6,6,6.93-1.41,7.66,1-6.9,2.07-6.9,2.07,3.53-.16,4.2,2.39S429.35,396.76,425.8,391.6Z" style="fill:#263238"></path><path d="M425.8,391.6s3.8-13.91,6.89-18.32-1.86,10-1.86,10,4.32-9.16,5.67-8.87S432,384.55,432,384.55s4.43-7.92,6.37-6.62-5.65,9.43-5.65,9.43,6.82-5.11,7.49-3.69-6.6,6-6.6,6,6.93-1.41,7.66,1-6.9,2.07-6.9,2.07,3.53-.16,4.2,2.39S429.35,396.76,425.8,391.6Z" style="fill:#fff;opacity:0.4;isolation:isolate"></path><path d="M423.87,395.63S429,385.72,428,384s-3.24,3.88-3.24,3.88,4-12.7,2.54-14.1-4.07,10.94-4.07,10.94,1.4-14.45,0-15.22-2.06,13.07-2.06,13.07-.95-14.64-2.7-14.42,0,13,0,13-3.92-9.74-5.67-9.35,2.82,10.09,2.82,10.09-4.63-5.85-6-4.48,4.15,7.78,4.15,7.78-4.7-2.93-5.92-1.47,4.93,4.62,4.93,4.62-5,1.3-4.66,2.55,4.66,1.08,4.66,1.08S414.64,400.83,423.87,395.63Z" style="fill:#263238"></path><path d="M423.87,395.63S429,385.72,428,384s-3.24,3.88-3.24,3.88,4-12.7,2.54-14.1-4.07,10.94-4.07,10.94,1.4-14.45,0-15.22-2.06,13.07-2.06,13.07-.95-14.64-2.7-14.42,0,13,0,13-3.92-9.74-5.67-9.35,2.82,10.09,2.82,10.09-4.63-5.85-6-4.48,4.15,7.78,4.15,7.78-4.7-2.93-5.92-1.47,4.93,4.62,4.93,4.62-5,1.3-4.66,2.55,4.66,1.08,4.66,1.08S414.64,400.83,423.87,395.63Z" style="fill:#fff;opacity:0.5;isolation:isolate"></path><circle cx="434.16" cy="371.95" r="0.78" style="fill:#263238"></circle><path d="M425.22,392.54h0a.18.18,0,0,1-.15-.21c0-.16,2.93-15.93,9.84-22.73a.18.18,0,0,1,.26,0,.19.19,0,0,1,0,.26c-6.83,6.72-9.71,22.38-9.73,22.53A.2.2,0,0,1,425.22,392.54Z" style="fill:#263238"></path><path d="M435.92,369.72a.92.92,0,1,1-.91-.92A.91.91,0,0,1,435.92,369.72Z" style="fill:#263238"></path><path d="M433,377.08a.78.78,0,1,1-.78-.78A.78.78,0,0,1,433,377.08Z" style="fill:#263238"></path><path d="M429.52,374.82a.78.78,0,1,1-.78-.78A.77.77,0,0,1,429.52,374.82Z" style="fill:#263238"></path><circle cx="431.17" cy="379.92" r="0.78" style="fill:#263238"></circle><path d="M428.38,378.8a.78.78,0,1,1-.78-.78A.78.78,0,0,1,428.38,378.8Z" style="fill:#263238"></path><circle cx="431.49" cy="370.63" r="0.78" style="fill:#263238"></circle><path d="M431.3,374.65v-4a.19.19,0,0,1,.19-.18.18.18,0,0,1,.18.18v3.54l3.29-.81a.19.19,0,0,1,.23.13.2.2,0,0,1-.14.23Z" style="fill:#263238"></path><path d="M429.63,378l-1.06-3.13a.2.2,0,0,1,.11-.24.19.19,0,0,1,.24.12l1,2.81,2.29-.51a.18.18,0,1,1,.08.36Z" style="fill:#263238"></path><path d="M428.3,381.28l-.87-2.42a.18.18,0,0,1,.11-.24.2.2,0,0,1,.24.11l.74,2.06,2.58-1.05a.19.19,0,0,1,.24.11.19.19,0,0,1-.1.24Z" style="fill:#263238"></path><path d="M415.89,396.65a.17.17,0,0,1-.15-.07c-3.66-5.05-8.18-10.56-14-13.15a.18.18,0,0,1-.09-.24.2.2,0,0,1,.25-.1c5.87,2.62,10.43,8.18,14.12,13.27a.18.18,0,0,1-.05.26A.19.19,0,0,1,415.89,396.65Z" style="fill:#263238"></path><path d="M401,383.58a.91.91,0,0,0,1.18.54.93.93,0,0,0,.54-1.18.92.92,0,0,0-1.72.64Z" style="fill:#263238"></path><path d="M401.6,387.25a.91.91,0,1,0,.54-1.17A.9.9,0,0,0,401.6,387.25Z" style="fill:#263238"></path><path d="M406.31,389.45a.78.78,0,1,0,.46-1A.78.78,0,0,0,406.31,389.45Z" style="fill:#263238"></path><path d="M408.76,386.12a.78.78,0,1,0,.46-1A.79.79,0,0,0,408.76,386.12Z" style="fill:#263238"></path><path d="M408.28,391.74a.78.78,0,1,0,.46-1A.78.78,0,0,0,408.28,391.74Z" style="fill:#263238"></path><path d="M411.23,389.44a.78.78,0,1,0,.46-1A.77.77,0,0,0,411.23,389.44Z" style="fill:#263238"></path><path d="M404.73,383.16a.78.78,0,1,0,.45-1A.78.78,0,0,0,404.73,383.16Z" style="fill:#263238"></path><path d="M403.18,387a.2.2,0,0,1-.19-.17.19.19,0,0,1,.17-.2l3.37-.39L405.28,383a.2.2,0,0,1,.11-.24.19.19,0,0,1,.24.11l1.41,3.76-3.84.45Z" style="fill:#263238"></path><path d="M407.1,389.51a.18.18,0,0,1-.18-.16.18.18,0,0,1,.15-.21l2.33-.32-.09-3a.19.19,0,0,1,.18-.19.19.19,0,0,1,.19.18l.1,3.3-2.66.37Z" style="fill:#263238"></path><path d="M412.17,391.74l-3.16-.09a.17.17,0,0,1-.18-.19.2.2,0,0,1,.19-.18l2.78.08,0-2.19A.2.2,0,0,1,412,389h0a.2.2,0,0,1,.19.19Z" style="fill:#263238"></path><path d="M401,398.69h41.7s-10.55-3.44-10.81-4.42a3.25,3.25,0,0,0-1.54-2.5c-1.29-.85-3.05-1.37-3.54-2.3a13.79,13.79,0,0,0-2.53-2.87c-.52-.43-6.78,2.71-6.85,2.79s-1.81,3.48-2.41,4.24-4.68-.16-5.66.64-4.26,2.9-4.26,2.9S403.45,396.94,401,398.69Z" style="fill:#263238"></path><path d="M401,398.69h41.7s-10.55-3.44-10.81-4.42a3.25,3.25,0,0,0-1.54-2.5c-1.29-.85-3.05-1.37-3.54-2.3a13.79,13.79,0,0,0-2.53-2.87c-.52-.43-6.78,2.71-6.85,2.79s-1.81,3.48-2.41,4.24-4.68-.16-5.66.64-4.26,2.9-4.26,2.9S403.45,396.94,401,398.69Z" style="fill:#fff;opacity:0.1"></path></g><g id="freepik--Tent--inject-171"><path d="M420.29,398.68H236.18s.26-.53.76-1.5l1.61-3.05,0,0c7.78-14.42,33.68-58.79,65.36-73.68h41.36c33.06,14.89,63.08,59.26,72.18,73.68C419.3,397,420.29,398.68,420.29,398.68Z" style="fill:#99D9BD"></path><path d="M366.43,398.68H236.18s.26-.53.76-1.5c4.89-9.44,32.53-60.55,67-76.75h27.63C353.51,350.16,366.43,398.68,366.43,398.68Z" style="fill:#fff;opacity:0.1"></path><path d="M420.29,398.68H236.18s.26-.53.76-1.5l1.61-3.05,0,0h178.9C419.3,397,420.29,398.68,420.29,398.68Z" style="opacity:0.4;isolation:isolate"></path><path d="M421.81,399c-.55-.83-55-83-97.42-83s-91.16,82.12-91.64,82.95l-.84-.49a341,341,0,0,1,29.88-41.66c16.14-19,40.1-41.76,62.6-41.76,42.95,0,97.68,82.57,98.22,83.4Z" style="fill:#263238"></path><path d="M368.9,398.83C368.64,398,342.53,316,322.36,316v-1c20.87,0,46.38,80.11,47.46,83.52Z" style="fill:#263238"></path><path d="M296.05,323.86s13.53-10.1,27.26-10.1,27.44,8.58,27.44,8.58a44.07,44.07,0,0,0-13.91,1.52S311.55,320.56,296.05,323.86Z" style="fill:#99D9BD"></path><path d="M296.05,323.86s13.53-10.1,27.26-10.1,27.44,8.58,27.44,8.58a44.07,44.07,0,0,0-13.91,1.52S311.55,320.56,296.05,323.86Z" style="fill:#fff;opacity:0.2"></path><polygon points="291.35 330.47 289.45 328.18 284.62 332.38 285.89 334.15 291.35 330.47" style="fill:#99D9BD"></polygon><polygon points="273.19 346.99 270.64 344.95 266.07 350.04 268.36 352.7 273.19 346.99" style="fill:#99D9BD"></polygon><polygon points="255.27 368.58 252.35 366.68 249.43 371.13 252.35 373.54 255.27 368.58" style="fill:#99D9BD"></polygon><polygon points="243.08 387.9 238.63 385.86 235.45 391.33 239.94 394.12 243.08 387.9" style="fill:#99D9BD"></polygon><polygon points="338.11 331.17 341.16 330.09 343.82 334.15 340.96 335.43 338.11 331.17" style="fill:#99D9BD"></polygon><polygon points="358.64 330.41 361.09 328.3 365.06 331.11 362.86 333.34 358.64 330.41" style="fill:#99D9BD"></polygon><polygon points="379 347.8 381.81 346.2 385.14 349.74 382.55 351.49 379 347.8" style="fill:#99D9BD"></polygon><polygon points="394.8 365.21 397.81 364.02 400.62 367.99 397.81 369.36 394.8 365.21" style="fill:#99D9BD"></polygon><polygon points="411.44 386.77 414.44 385.58 417.26 389.55 414.45 390.92 411.44 386.77" style="fill:#99D9BD"></polygon><polygon points="348.13 348.08 351.29 347.42 353.39 351.8 350.39 352.68 348.13 348.08" style="fill:#99D9BD"></polygon><polygon points="356.57 367.06 359.78 366.68 361.49 371.23 358.42 371.84 356.57 367.06" style="fill:#99D9BD"></polygon><polygon points="363.97 388.63 367.19 388.25 368.89 392.8 365.82 393.41 363.97 388.63" style="fill:#99D9BD"></polygon><path d="M329.46,398.68h-62S282.27,351,304.1,350a14.64,14.64,0,0,1,2.29.06C329.46,352.45,329.46,398.68,329.46,398.68Z" style="fill:#263238"></path><path d="M329.46,398.68H289.67c.71-4.45,5.23-31.41,14.43-48.69a14.64,14.64,0,0,1,2.29.06C329.46,352.45,329.46,398.68,329.46,398.68Z" style="opacity:0.4;isolation:isolate"></path></g><g id="freepik--Chair--inject-171"><path d="M98.69,417.74H74.06a1.49,1.49,0,0,1-1.2-2.4l36-47.91a1.52,1.52,0,0,1,1.2-.6h24.63a1.53,1.53,0,0,1,1.35.83,1.51,1.51,0,0,1-.15,1.58l-36,47.9A1.49,1.49,0,0,1,98.69,417.74Zm-21.63-3H97.94l33.77-44.91H110.83Z" style="fill:#263238"></path><path d="M134.71,417.74H110.08a1.49,1.49,0,0,1-1.2-.6l-36-47.9a1.5,1.5,0,0,1,1.2-2.41H98.69a1.52,1.52,0,0,1,1.2.6l36,47.91a1.49,1.49,0,0,1,.15,1.57A1.51,1.51,0,0,1,134.71,417.74Zm-23.88-3h20.88L97.94,369.83H77.06Z" style="fill:#263238"></path><path d="M118.58,392.29l17.33-23.05a1.5,1.5,0,1,0-2.39-1.81L116.7,389.79,99.89,367.43a1.5,1.5,0,1,0-2.4,1.81l17.34,23.05-17.34,23a1.5,1.5,0,0,0,1.2,2.4,1.49,1.49,0,0,0,1.2-.6l16.81-22.36,16.82,22.36a1.49,1.49,0,0,0,1.2.6,1.52,1.52,0,0,0,.9-.3,1.5,1.5,0,0,0,.29-2.1Z" style="fill:#fff;opacity:0.2"></path><path d="M139.84,367.46v2.31a76.22,76.22,0,0,1-36.14,0H70.87v-2.31a1.91,1.91,0,0,1,1.91-1.91H99.62a2,2,0,0,1,.76.14c.19.07.44.16.76.25h0a10.58,10.58,0,0,0,6.87-.21,2.25,2.25,0,0,1,.88-.19h29A1.92,1.92,0,0,1,139.84,367.46Z" style="fill:#99D9BD"></path><path d="M137.65,365.55a6.62,6.62,0,0,0-2.25.39,64.09,64.09,0,0,1-18.54,3.7c-9.88.28-15.38-3.46-15.7-3.69a10.58,10.58,0,0,0,6.87-.21,2.25,2.25,0,0,1,.88-.19Z" style="fill:#fff;opacity:0.2;isolation:isolate"></path></g><g id="freepik--Telescope--inject-171"><path d="M222.19,268.8a1,1,0,0,1-.71-.3,1,1,0,0,1,0-1.41l6.13-6.13a1,1,0,0,1,.7-.29h4.33a1,1,0,0,1,0,2h-3.91l-5.84,5.83A1,1,0,0,1,222.19,268.8Z" style="fill:#263238"></path><rect x="232.64" y="252.96" width="8.97" height="4.39" style="fill:#263238"></rect><path d="M238.08,239.9a3.18,3.18,0,0,0-6.36,0l-2.25,12.25h10.16Z" style="fill:#263238"></path><path d="M314.08,200.16c-2.35-4.64-5.81-7.62-7.72-6.65L246,224.06c-1.92,1-1.56,5.52.79,10.16s5.8,7.62,7.72,6.65l60.34-30.55C316.78,209.35,316.43,204.81,314.08,200.16Z" style="fill:#99D9BD"></path><path d="M314.08,200.16c-2.35-4.64-5.81-7.62-7.72-6.65L246,224.06c-1.92,1-1.56,5.52.79,10.16s5.8,7.62,7.72,6.65l60.34-30.55C316.78,209.35,316.43,204.81,314.08,200.16Z" style="fill:#fff;opacity:0.5;isolation:isolate"></path><path d="M254.53,240.87c-1.92,1-5.37-2-7.72-6.65S244.1,225,246,224.06s5.37,2,7.72,6.65S256.44,239.9,254.53,240.87Z" style="opacity:0.2;isolation:isolate"></path><path d="M251.37,231.91c-1.65-3.26-4.07-5.35-5.42-4.67l-31.57,16c-1.34.68-1.1,3.87.55,7.13s4.08,5.35,5.42,4.67l31.57-16C253.27,238.36,253,235.16,251.37,231.91Z" style="fill:#99D9BD"></path><path d="M220.35,255c-1.34.68-3.77-1.41-5.42-4.67s-1.89-6.45-.55-7.13,3.77,1.41,5.42,4.67S221.7,254.34,220.35,255Z" style="opacity:0.2;isolation:isolate"></path><path d="M218.41,248.59c-1.43-2.82-3.54-4.64-4.71-4.05l-3.58,1.82c-1.17.59-1,3.36.48,6.19s3.53,4.64,4.7,4.05l3.59-1.82C220.05,254.19,219.84,251.42,218.41,248.59Z" style="fill:#99D9BD"></path><path d="M218.41,248.59c-1.43-2.82-3.54-4.64-4.71-4.05l-3.58,1.82c-1.17.59-1,3.36.48,6.19s3.53,4.64,4.7,4.05l3.59-1.82C220.05,254.19,219.84,251.42,218.41,248.59Z" style="fill:#fff;opacity:0.5;isolation:isolate"></path><path d="M215.3,256.6c-1.17.59-3.27-1.23-4.7-4.05s-1.65-5.6-.48-6.19,3.27,1.22,4.7,4S216.46,256,215.3,256.6Z" style="opacity:0.2;isolation:isolate"></path><path d="M224.18,241c1.08-.55,1.77-1.35,1.54-1.79l-3.41-6.74c-.22-.44-1.27-.36-2.35.19s-1.76,1.34-1.54,1.78l3.41,6.74C222.06,241.64,223.11,241.56,224.18,241Z" style="fill:#99D9BD"></path><path d="M224.18,241c1.08-.55,1.77-1.35,1.54-1.79l-3.41-6.74c-.22-.44-1.27-.36-2.35.19s-1.76,1.34-1.54,1.78l3.41,6.74C222.06,241.64,223.11,241.56,224.18,241Z" style="fill:#fff;opacity:0.5;isolation:isolate"></path><path d="M243.75,239.9a3.18,3.18,0,0,0-6.36,0l-2.25,12.25H245.3Z" style="fill:#263238"></path><path d="M243.75,239.9a3.18,3.18,0,0,0-6.36,0l-2.25,12.25H245.3Z" style="fill:#fff;opacity:0.30000000000000004;isolation:isolate"></path><path d="M229.47,252.15H245.3a0,0,0,0,1,0,0v.61a1,1,0,0,1-1,1h-13.8a1,1,0,0,1-1-1v-.61A0,0,0,0,1,229.47,252.15Z" style="fill:#263238"></path><path d="M229.47,252.15H245.3a0,0,0,0,1,0,0v.61a1,1,0,0,1-1,1h-13.8a1,1,0,0,1-1-1v-.61A0,0,0,0,1,229.47,252.15Z" style="fill:#fff;opacity:0.30000000000000004;isolation:isolate"></path><rect x="229.47" y="257.35" width="15.31" height="8.64" rx="1.38" style="fill:#263238"></rect><rect x="229.47" y="257.35" width="15.31" height="8.64" rx="1.38" style="fill:#fff;opacity:0.30000000000000004;isolation:isolate"></rect><path d="M244.77,262a2.57,2.57,0,1,1-2.57-2.57A2.57,2.57,0,0,1,244.77,262Z" style="fill:#263238"></path><path d="M253.15,313.34h-32.6a2.18,2.18,0,0,1-2.17-2.18h0a2.18,2.18,0,0,1,2.17-2.17h32.6a2.18,2.18,0,0,1,2.17,2.17h0A2.18,2.18,0,0,1,253.15,313.34Z" style="fill:#263238"></path><path d="M272.11,417.74h4.09L243.56,264.26a2,2,0,1,0-3.91.83Z" style="fill:#263238"></path><path d="M239.13,417.74V264.67a2,2,0,0,0-4,0V417.74Z" style="fill:#263238"></path><path d="M202,417.74l32.46-152.65a2,2,0,1,0-3.91-.83L197.9,417.74Z" style="fill:#263238"></path><g style="opacity:0.1;isolation:isolate"><path d="M239.13,417.74V264.67a2,2,0,0,0-4,0V417.74Z" style="fill:#fff"></path></g></g><g id="freepik--Character--inject-171"><path d="M209.07,265.35l7.33-2.68-2.51,6.91s-4.59.71-6.4-1.69Z" style="fill:#ffb573"></path><polygon points="222.19 264.54 219.77 270.21 213.89 269.58 216.4 262.67 222.19 264.54" style="fill:#ffb573"></polygon><path d="M210.64,265.32c-3.7-.26-7.46-.5-11.06-.87a43.09,43.09,0,0,1-5.11-.76,7.7,7.7,0,0,1-.87-.24c-.09-.21-.18-.42-.26-.67-1.2-3.24-2.31-6.87-3.43-10.39s-2.2-7.15-3.34-10.68l-8.45,2.54c1,3.68,2.21,7.28,3.49,10.89.63,1.8,1.26,3.6,2,5.4s1.42,3.59,2.31,5.46c.21.45.48,1,.74,1.46l.1.19,0,.09.14.24a5.4,5.4,0,0,0,.91,1.14,6.36,6.36,0,0,0,1.54,1.05,9.48,9.48,0,0,0,2.17.71c.62.13,1.2.21,1.75.27a39.92,39.92,0,0,0,6.16.08A77.9,77.9,0,0,0,211,269.68ZM193,263.17a1,1,0,0,1,.23.13C193,263.24,192.94,263.18,193,263.17Z" style="fill:#99D9BD"></path><path d="M210.64,265.32c-3.7-.26-7.46-.5-11.06-.87a43.09,43.09,0,0,1-5.11-.76,7.7,7.7,0,0,1-.87-.24c-.09-.21-.18-.42-.26-.67-1.2-3.24-2.31-6.87-3.43-10.39s-2.2-7.15-3.34-10.68l-8.45,2.54c1,3.68,2.21,7.28,3.49,10.89.63,1.8,1.26,3.6,2,5.4s1.42,3.59,2.31,5.46c.21.45.48,1,.74,1.46l.1.19,0,.09.14.24a5.4,5.4,0,0,0,.91,1.14,6.36,6.36,0,0,0,1.54,1.05,9.48,9.48,0,0,0,2.17.71c.62.13,1.2.21,1.75.27a39.92,39.92,0,0,0,6.16.08A77.9,77.9,0,0,0,211,269.68ZM193,263.17a1,1,0,0,1,.23.13C193,263.24,192.94,263.18,193,263.17Z" style="fill:#fff;opacity:0.30000000000000004;isolation:isolate"></path><polygon points="208.16 264.89 210.89 264.6 211.35 270.17 208.87 270.8 208.16 264.89" style="fill:#99D9BD"></polygon><polygon points="208.16 264.89 210.89 264.6 211.35 270.17 208.87 270.8 208.16 264.89" style="fill:#fff;opacity:0.5;isolation:isolate"></polygon><path d="M222.08,230.49a.24.24,0,0,1-.19-.1,3.1,3.1,0,0,0-2.39-1.18.24.24,0,0,1-.26-.22.24.24,0,0,1,.22-.26,3.47,3.47,0,0,1,2.81,1.37.25.25,0,0,1,0,.34A.3.3,0,0,1,222.08,230.49Z" style="fill:#263238"></path><path d="M218.27,232.29a13.53,13.53,0,0,0-.58,3.15,1.74,1.74,0,0,1-1.67-.69Z" style="fill:#d58745"></path><path d="M220.27,231.85c-.36.38-.85.48-1.1.24s-.16-.73.2-1.11.86-.48,1.1-.23S220.63,231.48,220.27,231.85Z" style="fill:#263238"></path><path d="M220.35,230.66l1.12.47S220.41,231.42,220.35,230.66Z" style="fill:#263238"></path><path d="M202.3,229.12a2.11,2.11,0,0,0,0,.25,9.64,9.64,0,0,0,1,3.55c1.7,3.15,3.64,4.62,5.86,4.74h0c3.22.06,6.73-2.31,10.32-5.89a19,19,0,0,0,3.7-4.74l.06-.07a1.36,1.36,0,0,1,.1-.21,6.92,6.92,0,0,0-.2-6.6,13.81,13.81,0,0,0-1.73-2.47C215,210.22,201.52,219.71,202.3,229.12Z" style="fill:#ebb376"></path><path d="M202.32,229.37a9.29,9.29,0,0,0,1.08,3.45c1.71,3.15,3.73,4.55,6,4.66a9.86,9.86,0,0,1-3.76-5A5.13,5.13,0,0,0,202.32,229.37Z" style="opacity:0.2;isolation:isolate"></path><path d="M223.23,227s-4.83,5-11.4,2c0,0-7.26,2.64-10.08-.4-3.84-4.15-1.11-13.21,6.33-17.16C217.73,206.35,229,217.85,223.23,227Z" style="fill:#263238"></path><path d="M215.52,230.21c.81-.72,1.59-2.57.3-3.66s-5.19,1-3.08,4.81C213,231.91,213.83,231.71,215.52,230.21Z" style="fill:#ebb376"></path><path d="M220.77,213.09s5.62,3.84,6,8.34c.49,5.25-.84,8.58-7.91,8.09,0,0-4.65-10.69-7.66-13a39.47,39.47,0,0,0-5.56-3.52C210.67,207.62,219.45,209.33,220.77,213.09Z" style="fill:#263238"></path><path d="M206.28,235.82s-4.74-1.42-5.95,5.24l-10-5.77s7.49-1.87,10.74-7.53C201.08,227.76,204.35,227,206.28,235.82Z" style="fill:#ebb376"></path><path d="M211.83,229s-1.11,4.83.59,7.46c0,0-10.92-1.5-15.12-5.32s.66-15.57,8.39-20.52,14.42-1.75,18.39,5.6c0,0-10.83,5.56-12.13,8.83S211.83,229,211.83,229Z" style="fill:#263238"></path><path d="M208.78,410.7l4.59-1.26c-1.68-23.13-6.22-51-10.08-72-.61-3.28-1.19-6.38-1.75-9.27-.27-1.38-.52-2.69-.77-4-1.23-6.27-2.26-11.22-2.9-14.29-.47-2.23-.74-3.46-.74-3.46l-16.49,4.78,1.37,4.16,4.53,13.72.52,1.57,3,9.06,5.09,15.42C195.86,378.78,208.78,410.7,208.78,410.7Z" style="fill:#ebb376"></path><path d="M168.78,409.58l4.74-.46c2.47-25.09,2.57-56.32,2.23-78-.05-3.37-.12-6.51-.18-9.35,0-.15,0-.29,0-.43-.14-5.65-.29-10.14-.39-13-.09-2.23-.14-3.45-.14-3.45L158,306.8l1.06,7.1,1.55,10.44.31,2,1.06,7.11,2.86,19.07C161.48,375.92,168.78,409.58,168.78,409.58Z" style="fill:#ebb376"></path><path d="M160.57,324.34l15-2.59c0-.15,0-.29,0-.43-.14-5.65-.29-10.14-.39-13L159,313.9Z" style="opacity:0.2;isolation:isolate"></path><path d="M199.52,318l-15.78,2.68L182,315.42l15.85-5.48C198.27,311.89,198.84,314.62,199.52,318Z" style="opacity:0.2;isolation:isolate"></path><path d="M158.63,261.74s-10.24,23.91-.67,58.59l18.64-2.14v-8.25l2.9,7.52,19.83-3.67c-5.75-28.14-10.93-40.9-10.93-40.9L187,258.73Z" style="fill:#263238"></path><path d="M166.53,408.61c0-.59,7.33-.13,7.33-.13s4.5,4.58,8.87,5.61,1.93,3.65-3,3.65H167.69C164.22,417.74,166.39,414.78,166.53,408.61Z" style="fill:#263238"></path><path d="M177.71,410.35a9.16,9.16,0,0,1-3-.92.18.18,0,0,1-.07-.05h0l0,0a.19.19,0,0,1,0-.15c0-.07.64-1.78,1.63-2.19a1.13,1.13,0,0,1,.95,0c.33.16.49.37.48.62s-.55.77-1.14,1.08a3,3,0,0,1,1.64.18.8.8,0,0,1,.39.5.71.71,0,0,1-.18.78A1,1,0,0,1,177.71,410.35Zm-2.37-1.05c1.08.46,2.42.86,2.77.58,0,0,.12-.1,0-.39a.42.42,0,0,0-.21-.25A4.86,4.86,0,0,0,175.34,409.3Zm1.31-2a.79.79,0,0,0-.29.06,3.23,3.23,0,0,0-1.26,1.58c1.09-.42,2.13-1,2.15-1.31,0-.11-.16-.2-.26-.25A.81.81,0,0,0,176.65,407.29Z" style="fill:#99D9BD"></path><path d="M207.48,408.61c0-.59,7.32-.13,7.32-.13s4.5,4.58,8.87,5.61,1.93,3.65-2.95,3.65H208.63C205.16,417.74,207.33,414.78,207.48,408.61Z" style="fill:#263238"></path><path d="M218.65,410.35a9.32,9.32,0,0,1-3-.92.1.1,0,0,1-.06-.05h0l0,0a.2.2,0,0,1,0-.15c0-.07.64-1.78,1.63-2.19a1.13,1.13,0,0,1,.95,0c.33.16.5.37.48.62s-.54.77-1.14,1.08a3,3,0,0,1,1.64.18.77.77,0,0,1,.39.5.71.71,0,0,1-.17.78A1.07,1.07,0,0,1,218.65,410.35Zm-2.36-1.05c1.08.46,2.42.86,2.76.58,0,0,.12-.1,0-.39a.42.42,0,0,0-.21-.25A4.82,4.82,0,0,0,216.29,409.3Zm1.31-2a.8.8,0,0,0-.3.06,3.21,3.21,0,0,0-1.25,1.58c1.08-.42,2.13-1,2.15-1.31,0-.11-.17-.2-.27-.25A.8.8,0,0,0,217.6,407.29Z" style="fill:#99D9BD"></path><path d="M176.61,309.94v4.88C157.12,306.68,162,287.21,162,287.21c1.25,7.48,9.8,10.25,9.8,10.25Z" style="opacity:0.2;isolation:isolate"></path><polygon points="166.93 275.17 175.04 275.17 175.89 283.25 171.41 286.74 166.93 283.96 166.93 275.17" style="opacity:0.2;isolation:isolate"></polygon><path d="M159.08,273.84l-.45,9.41-2.88,4s-.93-.82-1.72-1.65a90.93,90.93,0,0,1,1.34-11.72Z" style="opacity:0.2;isolation:isolate"></path><path d="M178.19,316.34s.38,2.68,1,2.17,20.92-3.69,20.92-3.69v-2.69Z" style="fill:#99D9BD"></path><path d="M178.19,316.34s.38,2.68,1,2.17,20.92-3.69,20.92-3.69v-2.69Z" style="fill:#fff;opacity:0.7000000000000001;isolation:isolate"></path><path d="M157.34,319.84s.34,2.7.92,2.21S177,319,177,319v-2.69Z" style="fill:#99D9BD"></path><path d="M157.34,319.84s.34,2.7.92,2.21S177,319,177,319v-2.69Z" style="fill:#fff;opacity:0.7000000000000001;isolation:isolate"></path><path d="M153.88,273.18l38,6.11L190.34,266l20.47-16.26a23.23,23.23,0,0,0-12.5-16.27c-11-5.53-17.67-2.5-17.67-2.5S161.21,240.62,153.88,273.18Z" style="fill:#99D9BD"></path><path d="M153.88,273.18l38,6.11L190.34,266l20.47-16.26a23.23,23.23,0,0,0-12.5-16.27c-11-5.53-17.67-2.5-17.67-2.5S161.21,240.62,153.88,273.18Z" style="fill:#fff;opacity:0.5;isolation:isolate"></path><path d="M204.35,237.74s-4.25-9.28-17.64-12.72-13.48,10.9-11.14,14.73,22.74-3.25,22.74-3.25Z" style="fill:#99D9BD"></path><path d="M204.35,237.74s-4.25-9.28-17.64-12.72-13.48,10.9-11.14,14.73,22.74-3.25,22.74-3.25Z" style="fill:#fff;opacity:0.30000000000000004;isolation:isolate"></path><path d="M222,243.76l2.88-7.26L228.4,243s-2.53,3.89-5.52,3.64Z" style="fill:#ffb573"></path><polygon points="230.17 233.44 232.78 239.02 228.4 242.98 224.92 236.5 230.17 233.44" style="fill:#ffb573"></polygon><path d="M225.74,246.11c-.72-.18-1.44-.4-2.14-.65a10.34,10.34,0,0,0-2.11-.59l-2.85,10.18c-.51,1.77-1,3.53-1.6,5.23-.86-1.41-1.7-2.9-2.55-4.4-1-1.73-5.13-10.83-5.13-10.83-4.28-.28-7,10.1-7,10.1,1.82,3.82,9.49,12.28,10.3,13.2.42.46.84.92,1.4,1.44.14.12.27.24.45.38l.26.21.12.1.07,0,.16.12a4.49,4.49,0,0,0,5.46-.22,5.93,5.93,0,0,0,1.36-1.6,11.11,11.11,0,0,0,.55-1.08,17,17,0,0,0,.66-1.81c.36-1.13.62-2.2.86-3.26.46-2.11.81-4.19,1.11-6.26.49-3.41.82-6.8,1-10.22Z" style="fill:#99D9BD"></path><path d="M225.74,246.11c-.72-.18-1.44-.4-2.14-.65a10.34,10.34,0,0,0-2.11-.59l-2.85,10.18c-.51,1.77-1,3.53-1.6,5.23-.86-1.41-1.7-2.9-2.55-4.4-1-1.73-5.13-10.83-5.13-10.83-4.28-.28-7,10.1-7,10.1,1.82,3.82,9.49,12.28,10.3,13.2.42.46.84.92,1.4,1.44.14.12.27.24.45.38l.26.21.12.1.07,0,.16.12a4.49,4.49,0,0,0,5.46-.22,5.93,5.93,0,0,0,1.36-1.6,11.11,11.11,0,0,0,.55-1.08,17,17,0,0,0,.66-1.81c.36-1.13.62-2.2.86-3.26.46-2.11.81-4.19,1.11-6.26.49-3.41.82-6.8,1-10.22Z" style="fill:#fff;opacity:0.30000000000000004;isolation:isolate"></path><polygon points="221.1 245.03 222.19 242.5 227.27 244.82 226.6 247.29 221.1 245.03" style="fill:#99D9BD"></polygon><polygon points="221.1 245.03 222.19 242.5 227.27 244.82 226.6 247.29 221.1 245.03" style="fill:#fff;opacity:0.5;isolation:isolate"></polygon></g></svg>
